<svg version="1.1" xmlns="http://www.w3.org/2000/svg" viewBox="0 0 1016.0604858398438 451.864227294922" width="2032.1209716796875" height="903.728454589844">
  <!-- svg-source:excalidraw -->
  
  <defs>
    <style>
      @font-face {
        font-family: "Virgil";
        src: url("https://excalidraw.com/Virgil.woff2");
      }
      @font-face {
        font-family: "Cascadia";
        src: url("https://excalidraw.com/Cascadia.woff2");
      }
    </style>
  </defs>
  <rect x="0" y="0" width="1016.0604858398438" height="451.864227294922" fill="#ffffff"></rect><g stroke-linecap="round" transform="translate(130.10324846002254 179.02980139269937) rotate(0 62.6064453125 48.346435546875)"><path d="M0 0 C0 0, 0 0, 0 0 M0 0 C0 0, 0 0, 0 0 M-0.38 6.67 C2.19 4.6, 2.67 1.69, 5.74 -0.11 M0.14 6.74 C0.87 5.17, 2.11 3.87, 4.69 0.43 M-0.42 12.6 C3.15 6.57, 8.68 3.6, 12.09 -0.44 M0.68 12.67 C4.32 7.35, 9.14 2.83, 11.09 -0.59 M-1.93 19.31 C2.55 13.33, 9.91 8.78, 15.26 1.85 M-0.87 18.43 C5.52 13.5, 10.09 7.42, 16.3 1.3 M0.98 26.03 C5.78 18.16, 9.31 13.09, 19.62 0.27 M-0.57 24.59 C6.8 16.23, 14.27 8.16, 22.08 -0.05 M0.9 29.06 C10.85 18, 19.74 9.25, 25.85 -0.37 M0.49 29.65 C8.78 21.24, 16.66 10.1, 26.19 0.8 M1.62 35.79 C9.64 26.73, 16.87 16.83, 32.95 -0.62 M-0.45 36.18 C10.7 24.07, 22.95 11.1, 32.37 0.38 M1.51 40.65 C11.49 33.12, 20.26 22.08, 36.78 -0.93 M0.05 41.98 C6.58 33.65, 14.72 25.97, 36.02 -0.1 M-1.06 46.94 C16.33 31.67, 32.29 14.1, 40.75 -2.09 M0.53 48.03 C9.87 35.8, 20.54 23.24, 43.22 0 M-1.66 55.08 C18.64 35.18, 32.98 16.77, 46.03 0.36 M0.91 53.94 C14.02 36.73, 29.74 21.55, 48.23 0.4 M0.39 60.28 C16.27 40.96, 33.82 20.69, 54.19 -0.35 M0.09 61.73 C20.37 36.91, 42.17 13.55, 52.59 0.69 M0.03 68.75 C14.06 48.72, 32.72 29.21, 57.44 -0.63 M0.31 67.23 C22.11 41.21, 42.58 17.88, 58.57 0.01 M-0.07 71.56 C24.42 43.83, 47.65 18.85, 65.27 1.01 M-0.06 72.07 C12.52 58.56, 25.82 44.58, 64.28 -0.24 M-2.01 80.46 C14.75 62.19, 30.93 42.73, 70.67 1.58 M-0.69 78.69 C22.91 51.09, 46.57 25.34, 69.14 -0.65 M-0.65 86.16 C17.21 67.14, 32.78 46.19, 72.82 1.09 M0.09 84.74 C25.27 55.42, 50.93 27.76, 74.94 -1.09 M0.56 89.92 C31.58 56.99, 60.3 24.75, 79.25 0.18 M-0.18 91.87 C23.81 62.22, 50.12 32.78, 79.36 0.99 M2.29 97.11 C18.98 74.6, 41.07 49.62, 84.54 -0.37 M-0.09 97.36 C30.09 63.63, 58.17 31.26, 85.01 -0.71 M7.43 97.96 C28.34 69.71, 50.07 46.2, 88.52 1.97 M6.13 96.16 C25.63 72.15, 46.96 48.68, 90.97 0.39 M10.73 99.03 C39.81 63.75, 66.8 33.46, 94.95 -0.98 M11.57 96.39 C38.69 65.36, 65.44 35.29, 95.78 0.46 M17.31 97.11 C36.89 74.4, 56.71 46.44, 101.7 1.45 M15.5 96.46 C37.11 74.53, 56.54 51.62, 101.04 0.96 M23.51 98.36 C50.91 66.25, 78.31 32.42, 107.43 -1.67 M21.59 96.36 C47.78 68.47, 74.04 37.25, 106.36 -0.6 M28.4 98.09 C49.3 75.03, 69.62 47.38, 109.82 -1.26 M25.7 96.6 C58.52 61.41, 91.26 24.6, 110.98 -0.98 M33.79 95.09 C50.39 73.78, 72.72 49.41, 115.54 0.01 M31.31 96.66 C57.15 66.98, 83.4 36.22, 116.05 0.28 M36.41 99.22 C69.63 62.12, 101.64 23.37, 121.78 1.62 M37.96 97.78 C67.92 61.16, 97.06 27.13, 121.52 0.81 M44.59 96.9 C70.84 64.63, 98.79 33.21, 127.01 1.69 M43.39 96.59 C62.86 73.4, 82.12 50.25, 125.25 1.17 M46.5 98.76 C72.96 69.83, 96.11 43.1, 128.41 6.35 M47.99 97.91 C70.55 70.72, 94.11 44.96, 125.81 6.29 M54.77 97.11 C75.49 71.8, 97.92 45.49, 125.88 11.7 M52.84 96.39 C82.75 64.64, 108.75 33.27, 126.74 12.64 M58.73 97.6 C78.74 69.75, 100.95 48.15, 124.94 21.26 M58.3 97.29 C74.72 80.41, 89.19 61.91, 126.9 19.78 M65.04 96.69 C80.91 76.69, 96.87 57.31, 124.76 24.41 M63.98 96.19 C85.61 72.38, 106.04 48.31, 126.78 26.04 M69.95 97.3 C84.16 79.53, 99.29 62.11, 127.7 30.32 M69.29 97.67 C85.48 78.71, 100.75 60.84, 125.4 32.5 M75.93 98.28 C93.61 73.16, 115.73 50.2, 125.24 36.15 M75.46 97.06 C89.65 80.93, 102.53 65.88, 126.62 36.46 M79.88 98.06 C95.57 77.46, 117.42 55.4, 128.29 44.71 M80.12 97.19 C91.74 82.98, 104.39 68.95, 126.71 43.14 M85.83 96.16 C96.65 85.73, 105.02 74.55, 125.1 48.67 M85.26 96.01 C95.99 85.06, 107 71.5, 126.69 49.18 M89.1 96.77 C102.06 83.69, 110.5 71.41, 126.83 56.48 M89.82 97.43 C100.7 86.75, 109.2 74.03, 127.19 56.55 M96.99 98.29 C105.55 87.06, 113.47 77.05, 126.94 60.11 M95.69 96.94 C108.52 83.57, 119.61 70.5, 126.22 61.61 M101 96.93 C106.04 89.5, 113.22 85.48, 125.27 69.38 M100.25 96.39 C109.54 87.67, 116.82 78.15, 126.55 67.5 M105.48 96.26 C114.45 89.9, 121.64 79.39, 128.21 75.53 M106.39 97.69 C113.63 89.01, 121.28 79.1, 126.27 74.88 M111.84 98.74 C115.37 93.01, 119.94 87.19, 124.74 81.53 M111.07 97.5 C115.34 93.22, 120.8 87.79, 126.15 80.43 M118.66 95.74 C120.9 93.01, 123.74 90.14, 126.08 85.96 M117.33 96.92 C118.92 94.36, 121.49 92.4, 127.16 85.88 M121.84 97.05 C123.02 96, 125.22 94.27, 126.25 92.51 M122.47 96.92 C123.98 95.25, 125.21 93.51, 126.38 92.81" stroke="#40c057" stroke-width="0.5" fill="none"></path><path d="M-1.34 1.96 C36.11 0.63, 67.37 1.58, 123.98 1.5 M-0.25 -0.34 C44.94 1.9, 89.52 0.54, 125.47 0.44 M126.33 -1.27 C124.07 22.69, 126.33 47.38, 124.86 97.61 M124.66 -0.65 C126.13 27.8, 125.13 54.54, 124.34 96.66 M127.15 96.67 C86.2 98.22, 48.71 99.09, 0.24 98.25 M124.91 96.19 C81.98 96.09, 38.55 95.11, -0.13 96.11 M-1.36 97 C-0.48 69.86, -0.06 41.98, -1.96 0.37 M-0.74 95.74 C0.16 72.21, 1.1 46.96, 0.89 -0.81" stroke="#000000" stroke-width="1" fill="none"></path></g><g transform="translate(135.10324846002254 214.87623693957437) rotate(0 57.5 12.5)"><text x="57.5" y="18" font-family="Virgil, Segoe UI Emoji" font-size="20px" fill="#000000" text-anchor="middle" style="white-space: pre;" direction="ltr">Test</text></g><g stroke-linecap="round" transform="translate(598.1048478450784 178.76886658006936) rotate(0 62.6064453125 48.346435546875)"><path d="M0 0 C0 0, 0 0, 0 0 M0 0 C0 0, 0 0, 0 0 M0.4 6.42 C1.73 4.07, 3.27 3.33, 4.42 0.76 M-0.34 6.27 C1.09 5.29, 2.34 3.68, 4.65 0.56 M0.04 12.86 C3.63 8.58, 7.04 4.76, 9.76 0.94 M0.56 11.83 C3.67 8.52, 6.01 4.72, 10.07 -0.26 M0.84 19.4 C3.57 11.22, 9.06 8.93, 13.75 1.94 M-0.18 17.85 C4.58 12.52, 10.39 4.98, 15.07 -0.33 M-1.44 23.38 C6.65 18.16, 9.7 11.81, 19.28 0.35 M-0.62 23.11 C7.16 16.05, 14.71 7.52, 20.37 -0.58 M1.4 30.75 C7.04 22.98, 13.29 15.34, 26.77 1.88 M-0.73 30.55 C8 22.15, 15.48 13.13, 25.63 -0.31 M1.19 37.24 C6.34 30.78, 13.92 21.98, 31.22 0.17 M0.27 36.79 C8.91 26.55, 16.54 17.64, 32.66 -0.85 M-0.99 44.25 C9.34 32.9, 19.32 20.48, 38.27 -1.52 M-0.21 42.11 C12.64 29.26, 24.47 15.81, 36.75 1.19 M0.75 48.56 C10.8 39.59, 19.08 26.86, 41.08 1.12 M0.62 49.53 C7.61 38.98, 16.62 28.11, 41.59 -0.31 M1.28 54.49 C11.77 37.62, 25.5 22.21, 48.57 -1.12 M1.22 55.28 C16.05 37.32, 31.6 19.34, 46.8 -0.21 M0.76 59.35 C10.34 49.25, 23.48 33.13, 54.27 0.49 M-0.78 61.63 C21.31 37.13, 41.88 13.14, 52.85 -0.32 M0.81 65.65 C16.15 49.57, 27.91 32.59, 56.62 2.05 M-0.33 67.39 C14.4 50.99, 28.07 32.95, 58.57 -0.6 M0.07 74.74 C13.44 57.3, 29.62 41.83, 63.81 -1.55 M-0.11 72.95 C22.12 47.76, 43.76 22.57, 64.06 0.59 M-0.18 78.52 C15.68 61.04, 35.16 42.07, 70.04 0.84 M-0.87 80.34 C17.1 59.48, 35.05 38.11, 68.24 -0.7 M2.15 85.66 C22.02 60.31, 41.13 37.32, 76.39 0 M-0.08 84.71 C18.93 63.21, 36.54 43.65, 73.75 -0.27 M0.23 92.97 C16.48 72.62, 33.32 53.21, 79.1 -0.11 M0.53 92.14 C29.24 58.03, 59.23 24.85, 78.45 1.08 M1.17 98.91 C22.59 72.46, 44.93 48.01, 86.38 0.98 M0.97 96.42 C33.68 57.82, 66.49 19.89, 84.39 -0.77 M6.18 96.18 C38.26 59.36, 71.49 22.88, 90.74 1.75 M5.32 96.05 C38.39 59.78, 69.41 22.75, 89.25 -0.35 M10.42 95.06 C35.25 68.48, 64 38.8, 93.79 -1.92 M10.67 96.87 C39.19 65.52, 67.52 31.21, 95.35 -0.96 M15.57 97.22 C47.04 65.03, 75.25 30.37, 102.54 0.75 M15.96 98.23 C49.82 58.39, 83.59 20.77, 101.1 0.25 M20.87 98.68 C40.24 77.1, 57.03 59.82, 106.26 -1.18 M22.05 97.31 C49.68 64.36, 78.54 32.29, 105.95 -0.05 M24.67 97.53 C49.51 71.79, 71.34 44.89, 112.74 1.11 M27.54 97.18 C50.6 68.86, 75.87 41.47, 111.89 -0.52 M30.63 96.08 C60.09 64.06, 87.07 33.12, 116.48 0.35 M32.05 96.26 C57.08 69.36, 80.79 41.2, 115.75 1.33 M38.01 96.35 C65.25 67.06, 93.39 35.6, 122.25 -1.13 M36.7 98.2 C54.34 76.04, 72.36 56.27, 121.94 0.22 M44.48 97.44 C75.37 60.3, 106.67 23.44, 126.07 1.11 M42.05 96.56 C63.8 74.42, 84.22 50.97, 125.56 1.86 M48.45 99.03 C68.76 72.33, 92.77 47.81, 126.71 6.72 M48.64 96.68 C70.9 70.58, 94.5 43.88, 127.08 7.5 M51.86 98.77 C72.07 79.48, 86.98 58.91, 127.82 12.5 M52.86 96.38 C71.46 75.65, 90.31 54.49, 126.6 14.13 M58.5 95.75 C80.15 75.64, 100.01 51.21, 126.99 17.63 M59.5 97.81 C82.96 67.08, 108.72 38.71, 126.11 19.12 M64.84 95.93 C78.61 80.78, 93.7 62.3, 125.87 26.09 M63.68 96.2 C85.58 71.53, 106.72 47.09, 125.72 24.93 M70.31 95.56 C87.88 75.46, 108.63 53.11, 125.86 32.38 M69.33 97.65 C83.97 80.41, 99.51 63.12, 126.52 32.18 M76.16 98.63 C94.57 73.32, 114.91 53.06, 128.16 37.65 M75.16 95.87 C92.59 77.21, 108.97 57.56, 126.82 38.17 M79.72 96.32 C92.04 80.3, 107.17 64.05, 126.19 43.16 M79.11 98.04 C89.96 84.39, 99.49 72.53, 125.65 43.65 M85.24 96.4 C98.6 83.03, 109.57 69.32, 125.64 50.51 M86.36 97.52 C101.32 78.84, 115.97 61.63, 127.08 49.37 M90.2 98.74 C104.39 82.84, 119.25 65.47, 128.16 55.23 M89.74 97.68 C102.65 82.54, 115.78 68.22, 126.93 55.07 M96.12 96.65 C108.69 81.99, 118.55 70.85, 124.88 62.6 M95.76 96.65 C103.84 86.37, 112.8 76.53, 126.57 61.59 M102.88 96.4 C108.44 90.73, 112.83 79.92, 126.61 65.7 M101.04 97.1 C111.17 86.31, 120.3 75.65, 126.19 68.32 M107.51 98.61 C113.38 89.77, 119 84.82, 126.14 72.96 M106.28 97.05 C110.67 92.82, 113.86 87.5, 127.32 75.01 M110.55 97.7 C115.4 92.1, 120.59 86.12, 124.38 82.28 M110.74 97.63 C114.42 93.81, 118.17 89.58, 126.06 81.34 M118.35 95.75 C120.32 93.23, 121.5 91.4, 127.54 85.14 M117.96 96.12 C120.06 93.63, 122.7 91.3, 126.8 86.65 M122.72 96.71 C123.35 95.15, 124.82 93.79, 125.86 93.05 M122.09 96.88 C123.68 95.5, 125.65 93.37, 126.04 92.42" stroke="#40c057" stroke-width="0.5" fill="none"></path><path d="M1.78 -1.62 C40.93 0.66, 78.86 -0.18, 125.62 1.48 M0 0.25 C41.54 1.7, 82.53 0.49, 125.36 0.6 M126.05 0.62 C124.99 35.72, 122.83 67.26, 125.89 98.56 M126.16 -0.58 C123.7 30.92, 124.93 63.73, 126.06 96.64 M123.73 97.07 C86.12 97.03, 44.76 96.23, 0.7 95.79 M126.13 96.44 C97.68 96.28, 68.89 97.52, 0.79 96.71 M1.15 95.31 C-1.22 67.28, -1.01 34.7, 0.87 -1.72 M-0.18 97.46 C-0.5 68.17, -1.44 37.82, -0.01 0.91" stroke="#000000" stroke-width="1" fill="none"></path></g><g transform="translate(603.1048478450784 202.11530212694436) rotate(0 57.5 25)"><text x="57.5" y="18" font-family="Virgil, Segoe UI Emoji" font-size="20px" fill="#000000" text-anchor="middle" style="white-space: pre;" direction="ltr">Deploy to</text><text x="57.5" y="43" font-family="Virgil, Segoe UI Emoji" font-size="20px" fill="#000000" text-anchor="middle" style="white-space: pre;" direction="ltr">production</text></g><g stroke-linecap="round" transform="translate(375.0991715755473 181.11102966600686) rotate(0 62.6064453125 48.346435546875)"><path d="M0 0 C0 0, 0 0, 0 0 M0 0 C0 0, 0 0, 0 0 M-0.54 6.07 C1.99 4.75, 3.66 2.95, 4.89 1.11 M-0.09 6.33 C1.19 5.39, 2.13 3.67, 4.7 0.61 M1.32 13.02 C0.71 10.15, 3.05 6.64, 9.15 -0.31 M0.54 12.01 C2.43 8, 5.59 4.52, 11.06 -0.57 M1.78 19.87 C5.8 12.61, 11.62 5.75, 14.21 -0.55 M0.25 17.64 C2.65 15.35, 6.85 10.01, 16.18 0.66 M-1.32 25.41 C9.32 14.75, 17.31 4.89, 20.67 -0.37 M0.8 23.23 C6.37 17.7, 10.13 11.66, 20.5 0.86 M-0.14 30.54 C6.9 24.5, 11.38 14.71, 27.1 -1.28 M-0.03 31.35 C5.38 24.05, 12.19 17.79, 26.26 -0.38 M-0.76 36.78 C11.39 23.5, 22.04 10.65, 32.45 1.5 M-0.29 36.44 C7.09 28.34, 16.27 19.51, 32.53 0.24 M-1.37 44.41 C8.65 33.29, 18.4 20.61, 35.82 -1.45 M1.08 42.83 C10.92 30.26, 20.38 18.87, 37.87 0.38 M-0.84 48.25 C10.88 35.38, 20.37 25.86, 41.2 -0.19 M-0.01 49.69 C8.75 38.77, 17.81 28.34, 42.37 -0.25 M1.31 55.96 C16.66 33.63, 35.88 14.2, 45.62 2.14 M0.65 55.48 C12.61 40.79, 25.09 27.07, 48.18 0.85 M1.14 59.63 C21 35.48, 40.76 12.38, 51.84 -1.15 M0.07 60.71 C20.52 37.3, 41.52 14.02, 53.51 0.66 M-1.72 66.08 C23.19 40.68, 43.42 14.71, 56.58 -0.69 M-0.56 66.37 C16.68 47.43, 36.01 26.89, 57.19 -0.62 M-0.59 72.64 C21.47 50.3, 42.87 22.25, 63.15 -1.5 M-0.08 72.91 C23.07 48.49, 44.43 22.82, 64.72 0.14 M-0.26 81.04 C28.05 47.2, 55.72 17.82, 69.65 0.56 M-0.52 80.23 C14.74 63.4, 28.49 48.6, 68.75 -0.26 M1.03 85.64 C24.14 56.83, 50.39 28.87, 73.71 0.35 M-0.72 85.12 C20.27 62.74, 39.61 39.6, 75.14 0.31 M1.78 91.05 C22.36 64.22, 47.14 39.07, 80.61 -0.96 M-0.82 90.99 C26.27 60.35, 52.23 30.53, 79.5 0.1 M-0.09 95.65 C26.21 68.88, 49.65 40.16, 83.99 1.63 M0.77 96.59 C28.16 66.27, 55.52 35.25, 85.21 -0.83 M4.87 98.41 C22.26 74.98, 40.71 55.7, 90.08 0.56 M6.83 96.93 C39.04 59.44, 71.06 22.18, 89.94 0.09 M9.29 96.28 C32.57 74.3, 53.64 50.14, 94.29 1.21 M11.31 97.91 C33.88 70.2, 58.52 43.4, 95.7 -0.32 M17.47 96.15 C40.48 68.67, 66.11 40.08, 101.52 1.56 M15.17 98.34 C36.4 75.89, 55.24 52.52, 101.38 -0.27 M20.27 95.95 C42.21 72.42, 64.12 48.25, 106.75 1.64 M21.64 96.25 C47.38 68.62, 72.21 39.26, 106.73 -1.3 M28.56 98.46 C56.91 59.06, 89.34 24.26, 111.26 -0.82 M26.98 96.9 C46.93 74.54, 67.69 50.09, 110.97 0.47 M31.28 95.64 C60.87 62.66, 89.25 29.78, 114.68 -0.13 M32.87 96.14 C59.89 65.58, 88.57 33.35, 116.08 0.78 M37.59 98.16 C59.05 72.28, 82.53 46.43, 122.44 1.19 M37.96 98.23 C69.73 60.53, 102.14 24.81, 122.68 0.19 M43.61 95 C71.81 65.35, 97.97 33.64, 126.58 2.99 M42.89 96.5 C67.13 67.11, 93.18 37.72, 126.15 0.87 M46.53 98.98 C65.13 75.4, 81.01 55.35, 125.17 6.81 M47.81 97.1 C71.53 71.65, 93.46 45.87, 126.4 6.98 M55.38 98.34 C82.14 64.61, 108.24 33.87, 128.28 11.84 M53.44 97.7 C81.93 65.72, 110.5 32.72, 127.2 12.92 M57.16 98.31 C81.4 69.81, 106.1 42.97, 126.94 18.36 M58.57 97.21 C85.35 65.62, 111.22 35.96, 125.43 19.81 M63.55 96.62 C80.28 75.41, 98.77 55.06, 127.13 24.25 M65.09 96.51 C80.71 78.59, 96.04 58.08, 126.49 24.18 M69.12 97.17 C91.55 73.05, 111.99 49.22, 125.34 32.81 M69.58 98.17 C85.15 79.55, 100.5 62.65, 126.13 31.01 M73.95 97.46 C85.23 86.19, 94.15 72.63, 128.5 39.05 M74.24 97.14 C90.01 79.69, 105.54 61.83, 125.77 38.11 M77.9 98.27 C89.44 85.46, 101.3 71.96, 126.24 45.3 M80.53 96.52 C89.96 84.99, 99.17 74.07, 127.11 42.91 M87.23 95.14 C97.41 83.33, 109.02 72, 126.92 51.47 M86.11 96.22 C98.67 80.05, 112.93 64.22, 125.45 50.87 M88.83 95.96 C103.23 82.3, 120.17 63.72, 125.03 54.9 M90.44 96.72 C100.46 87.9, 109.53 77.66, 127.51 56.49 M96.88 96.57 C103.37 88.77, 108.37 81.02, 126.76 60.14 M95.75 95.79 C107.47 84.56, 118.35 72.06, 126.25 61.27 M99.07 98.26 C110.58 83.8, 122.77 73.26, 127.92 67.3 M100.64 96.16 C112.24 85.2, 121.34 73.5, 127.25 67.15 M107.25 95.35 C114.24 87.59, 119.6 81.16, 128.24 73.59 M107.04 96.31 C111.39 93.05, 114.96 88.12, 126.24 74.3 M111.65 96.81 C115.97 92.37, 122.82 87.21, 125.32 81.64 M111.8 96.14 C116.19 92.06, 121.74 84.58, 125.46 80.49 M116.07 97.42 C119.89 92.4, 122.26 90.54, 127.64 85.54 M117.58 97.39 C120.57 92.88, 124.08 88.18, 126.5 86.83 M122.05 97.03 C123.22 95.69, 125.41 93.48, 125.72 92.8 M122.5 97.01 C123.06 96.29, 124.04 94.83, 126.2 92.44" stroke="#40c057" stroke-width="0.5" fill="none"></path><path d="M1.06 -0.52 C38.1 0.01, 73.25 -0.56, 123.82 -0.57 M0.48 0.48 C37.15 -0.89, 75.13 0.69, 124.28 0.81 M125.11 -1.19 C123.76 37.1, 123.83 70.78, 124.13 95.38 M124.36 -0.35 C126.01 22.49, 125.08 44.75, 124.22 96.9 M123.45 94.74 C80.18 99.21, 36.38 99.16, -1.79 95.67 M125.91 96.83 C97.82 95.1, 70.14 94.64, 0.26 97.49 M-1.48 96.83 C0.52 69.4, -0.1 40.57, -1.24 -1.2 M0.72 96.87 C-0.27 77.88, 0.26 57.6, -0.34 0.14" stroke="#000000" stroke-width="1" fill="none"></path></g><g transform="translate(380.0991715755473 204.45746521288186) rotate(0 57.5 25)"><text x="57.5" y="18" font-family="Virgil, Segoe UI Emoji" font-size="20px" fill="#000000" text-anchor="middle" style="white-space: pre;" direction="ltr">Build &amp; </text><text x="57.5" y="43" font-family="Virgil, Segoe UI Emoji" font-size="20px" fill="#000000" text-anchor="middle" style="white-space: pre;" direction="ltr">Package</text></g><g stroke-linecap="round"><g transform="translate(279.1940600730635 226.92959376055717) rotate(0 29.545272440269798 0.3824488053878383)"><path d="M-0.2 0.74 C9.65 0.87, 48.5 -0.26, 58.64 -0.2 M-1.76 0.09 C8.5 0.43, 50.5 1.11, 60.85 0.93" stroke="#495057" stroke-width="1" fill="none"></path></g><g transform="translate(279.1940600730635 226.92959376055717) rotate(0 29.545272440269798 0.3824488053878383)"><path d="M34.07 9.47 C38.97 10.13, 48.5 4.57, 60.96 2.8 M33.23 11.74 C39.06 8.67, 44.13 7.08, 59.98 0.22" stroke="#495057" stroke-width="1" fill="none"></path></g><g transform="translate(279.1940600730635 226.92959376055717) rotate(0 29.545272440269798 0.3824488053878383)"><path d="M34.12 -10.91 C38.84 -4.9, 48.36 -5.11, 60.96 2.8 M33.28 -8.65 C39.06 -7.28, 44.12 -4.44, 59.98 0.22" stroke="#495057" stroke-width="1" fill="none"></path></g></g><g stroke-linecap="round" transform="translate(829.8243204752603 179.21093919542102) rotate(0 62.6064453125 48.346435546875)"><path d="M0 0 C0 0, 0 0, 0 0 M0 0 C0 0, 0 0, 0 0 M0.09 6.24 C0.94 5.19, 2.61 1.93, 4.98 0.98 M-0.57 6 C0.91 5, 1.7 3.65, 5.23 0.46 M1.57 12.94 C2.59 8.27, 7.53 2.96, 11.27 -1.62 M-0.27 11.98 C3.12 8.65, 6.87 5.49, 11.05 0.16 M-1.9 18.1 C4.35 14.09, 9.53 6.37, 16.73 -0.32 M-0.51 17.9 C3.08 14.56, 7.21 11.56, 16.57 0.02 M1.12 25.34 C8.26 15.77, 13.47 9.59, 20.21 1.18 M1.12 23.71 C7.33 14.27, 15.72 5.55, 21.84 -0.09 M-1.88 30.9 C7.48 23.14, 17.89 12.07, 27.51 -0.05 M-0.49 30 C7.24 21.16, 15.34 13.37, 26.3 -0.59 M-0.31 36.28 C8.55 26.07, 14.44 18.35, 33.57 0 M-0.62 36.02 C10.68 24.19, 23.07 11.41, 31.54 0.56 M-0.46 44.03 C9.64 33.43, 20.5 22.08, 37.03 1.21 M0.8 42.77 C12.75 27.83, 24.39 14.27, 36.8 -0.24 M0.3 47.34 C9.8 34.94, 22.05 24.19, 43.21 -1.32 M-0.09 49.15 C13.93 32.15, 27.66 16.35, 41.88 0.6 M-0.3 54.1 C14.07 39.96, 25.28 23.23, 46.49 -0.01 M1.16 55.47 C17.02 37.18, 31.64 18.51, 46.55 -0.25 M1.11 60.18 C20.6 37.59, 40.97 14.97, 53.3 0.53 M0.74 61.38 C16.31 44.38, 32.65 26.15, 53.48 -0.27 M-0.26 65.54 C19.94 42.11, 42.16 17.16, 56.54 0.83 M-1.23 67.38 C18.76 46.43, 37.04 25.35, 57.59 0.83 M0.41 71.73 C19.29 49.98, 38.97 28.87, 62.49 -2.15 M0.07 72.96 C24.59 45.52, 48.26 15.99, 63.01 -0.11 M1.23 77.52 C20.07 59.64, 36.98 34.34, 69.3 -1.68 M-0.22 79.71 C18.47 58.2, 37.2 39.23, 68.45 0.18 M1.94 84.93 C24.45 54.08, 52.74 24.66, 73.89 -1.99 M0.64 85.88 C18.89 64.1, 39.02 42.87, 74.12 0.23 M0.26 90.54 C27.62 61.78, 53.96 30.65, 78.38 -0.92 M-0.62 91.22 C25.84 62.17, 51.88 31.23, 79.17 -0.3 M0.92 98.79 C26.83 71.7, 50.22 42.33, 85.07 1.37 M0.67 96.85 C23.64 68.98, 47.09 41.27, 84.51 0.17 M5.94 98.55 C30.67 66.93, 60.79 33.11, 90.83 -0.25 M5.36 97.3 C24.02 76.01, 42.91 55.36, 90.32 1.03 M12.55 98.25 C35.66 69.14, 61.29 38.96, 94.08 -0.64 M11.41 96.25 C40.05 63.32, 70.03 28.93, 94.87 0.32 M15.97 95.61 C33.8 78.34, 49.26 59.33, 101.19 1.01 M16.62 97.69 C37.34 71.19, 59.84 47.2, 99.98 0.55 M22.48 96.44 C48.53 65.66, 76.04 35.3, 105.45 0.41 M22.65 97.35 C48.08 67.29, 73.77 36.97, 105.91 -0.44 M25.21 98.3 C50.41 68, 80.33 38.49, 109.47 1.56 M26.79 97.82 C52.79 67.48, 77.97 37.34, 110.75 0.37 M32.34 96.45 C48.38 75.74, 67.23 54.57, 115.49 0.76 M33.16 97.07 C55.41 68.86, 79.76 41.42, 116.7 0.74 M35.61 99.24 C57.78 75.11, 79.57 52, 123.12 0.17 M37.13 97.37 C56.09 77.18, 73.65 56.44, 122.74 -0.67 M43.22 97.38 C77.72 57.88, 110.65 22.15, 124.33 0.16 M43.24 97.06 C72.79 62.06, 104.07 27.18, 125.66 1.46 M48.26 99.3 C72.39 66.62, 98.19 37.29, 125.19 8.37 M47.57 97.48 C78.35 61.85, 109.96 26.78, 126.68 6.8 M53.69 96.39 C75.03 73.2, 92.57 52.53, 126.05 13.46 M53.7 96.73 C77.24 70.32, 99.83 42.29, 125.7 12.59 M56.71 98.4 C82.98 69.66, 107.76 42.63, 124.74 18.23 M59.07 96.55 C75.97 78.65, 93.13 58.1, 125.37 19.34 M65.78 98.66 C85.11 73.41, 110.43 47.52, 124.87 25.92 M64.89 96.18 C82.97 75.96, 100.95 54.4, 127.43 24.63 M68.97 97.48 C85.95 78.08, 102.51 57.31, 125.54 29.78 M68.58 97.19 C87.92 75.76, 106.54 53.11, 125.36 31.21 M74.99 95.39 C91.7 78.34, 109 58.42, 127.66 37.13 M75.64 97.29 C90.93 76.77, 108.28 58.8, 126.65 36.61 M81.53 96.51 C94.12 79.5, 110.41 65.23, 128.3 42.66 M80.09 97.25 C88.67 85.5, 98.51 75.83, 126.19 42.95 M84.29 97.82 C95.89 87.41, 104.09 74.7, 127.09 48.48 M86.33 96.65 C99.17 81.16, 113.21 64.14, 126.52 50.56 M89.34 96.51 C102.27 82.8, 117.52 65.94, 127.82 53.74 M89.59 96.81 C101.97 82.83, 115.95 67.79, 126.53 56.07 M94.12 95.23 C103.83 89.61, 107.86 83.12, 126.27 62.13 M95.82 96.58 C104.59 86.92, 112.83 78.09, 127.16 61.49 M99.83 97.5 C107.85 88.79, 112 83.7, 126.39 67.97 M100.09 97.21 C108.23 89.07, 116.46 79.66, 126.6 66.81 M108.39 96.92 C112.44 89.49, 116.99 86.59, 124.81 75.52 M106.51 96.16 C112.98 88.76, 119.09 83.37, 126.75 74.88 M110.89 96.57 C115.65 91.17, 119.06 87.49, 127.1 81.05 M112.62 97.99 C114.47 93.42, 118.96 88.62, 126.46 79.93 M116.74 97.77 C119 93.12, 121.37 91.58, 127.18 84.9 M117.32 96.33 C120.78 92.2, 125.11 88.45, 126.97 86.55 M121.89 97.28 C123.49 94.9, 124.96 94.07, 126.33 93.11 M122.59 97.33 C123.31 95.91, 124.73 94.06, 126.08 92.56" stroke="#40c057" stroke-width="0.5" fill="none"></path><path d="M-0.52 0.63 C44.75 -0.55, 89.66 0.76, 126.99 -1.08 M-0.96 0.8 C40.57 -1.26, 82.39 -1.22, 125.67 -0.48 M123.95 0.42 C125.81 36.14, 124.6 70.4, 124.49 98.31 M124.96 0.02 C125.44 29.89, 125.92 58.95, 126.1 96.78 M127 98.29 C85.38 94.97, 40.92 96.06, 1.74 97.22 M126.19 96.15 C80.97 97.24, 38.57 97.55, 0.04 96.57 M-0.3 96.4 C-0.96 59.22, -1.24 19.55, 1.64 -0.23 M-0.49 97.09 C1.43 75.61, 1.34 54.51, 0.58 0.55" stroke="#000000" stroke-width="1" fill="none"></path></g><g transform="translate(834.8243204752603 215.05737474229602) rotate(0 57.5 12.5)"><text x="57.5" y="18" font-family="Virgil, Segoe UI Emoji" font-size="20px" fill="#000000" text-anchor="middle" style="white-space: pre;" direction="ltr">Smoke test</text></g><g stroke-linecap="round"><g transform="translate(514.3002389349676 230.80161729859196) rotate(0 30.848852603694922 0.4865444348642143)"><path d="M-0.63 0.75 C9.86 0.53, 52.07 -0.29, 62.33 -0.28 M1.24 0.1 C11.7 0.6, 52.12 1.41, 61.89 1.23" stroke="#495057" stroke-width="1" fill="none"></path></g><g transform="translate(514.3002389349676 230.80161729859196) rotate(0 30.848852603694922 0.4865444348642143)"><path d="M34.9 12.98 C40.57 8.18, 49.47 5.67, 59.99 -0.17 M33.64 11.45 C41.16 7.93, 46.56 6.45, 61.66 2.12" stroke="#495057" stroke-width="1" fill="none"></path></g><g transform="translate(514.3002389349676 230.80161729859196) rotate(0 30.848852603694922 0.4865444348642143)"><path d="M34.99 -7.54 C40.81 -7.18, 49.69 -4.53, 59.99 -0.17 M33.73 -9.07 C41.19 -7.57, 46.56 -4.02, 61.66 2.12" stroke="#495057" stroke-width="1" fill="none"></path></g></g><g stroke-linecap="round"><g transform="translate(744.5614694037176 235.40882380021014) rotate(0 33.813760687223294 -0.8520116487144094)"><path d="M-0.47 0.15 C10.79 0.01, 56.47 0.07, 68.1 -0.03 M1.48 -0.82 C12.5 -1.38, 55.63 -2.08, 66.87 -1.79" stroke="#495057" stroke-width="1" fill="none"></path></g><g transform="translate(744.5614694037176 235.40882380021014) rotate(0 33.813760687223294 -0.8520116487144094)"><path d="M38.91 7.53 C49.38 6.23, 58.26 2.76, 65.85 -2.83 M38.03 8.21 C48.29 5.53, 57.62 1.06, 66.64 -2.2" stroke="#495057" stroke-width="1" fill="none"></path></g><g transform="translate(744.5614694037176 235.40882380021014) rotate(0 33.813760687223294 -0.8520116487144094)"><path d="M38.95 -12.99 C49.55 -7.29, 58.42 -3.76, 65.85 -2.83 M38.07 -12.32 C48.44 -8.3, 57.76 -6.06, 66.64 -2.2" stroke="#495057" stroke-width="1" fill="none"></path></g></g><g stroke-linecap="round" transform="translate(103.23655192057277 98.80590989854602) rotate(0 239.141845703125 146.73802185058594)"><path d="M0.67 0.59 C180.22 0.59, 359.56 1.62, 478.45 0.46 M477.3 0.57 C478.6 88.63, 477.86 177.9, 479.31 294.04 M478.56 293.52 C310.51 293.78, 141.36 293.34, 0.84 293.91 M-0.26 293.77 C0.13 227.76, 0.34 161.1, -0.68 -1.16" stroke="#000000" stroke-width="1.5" fill="none" stroke-dasharray="8 9"></path></g><g transform="translate(129.41630045572902 116.1692827012804) rotate(0 109 12.5)"><text x="0" y="18" font-family="Virgil, Segoe UI Emoji" font-size="20px" fill="#000000" text-anchor="start" style="white-space: pre;" direction="ltr">Continuous integration</text></g><g stroke-linecap="round" transform="translate(10 10) rotate(0 498.0302429199219 215.932113647461)"><path d="M0.42 -0.51 C250.56 0.63, 501.37 0.56, 996.06 -0.68 M995.88 -0.66 C996.46 163.53, 995.22 328.47, 996.43 431.3 M996.52 431.57 C743.43 431.72, 491.15 431.41, 0.08 432.62 M0.68 430.93 C2.39 284.4, 2.27 136.3, 0.62 -0.48" stroke="#000000" stroke-width="1.5" fill="none" stroke-dasharray="8 9"></path></g><g transform="translate(23.809549967447765 29.162634955512146) rotate(0 108 12.5)"><text x="0" y="18" font-family="Virgil, Segoe UI Emoji" font-size="20px" fill="#000000" text-anchor="start" style="white-space: pre;" direction="ltr">Continuous deployment</text></g></svg>