<svg version="1.1" xmlns="http://www.w3.org/2000/svg" viewBox="0 0 965.8013949924044 629.8230369766618" width="965.8013949924044" height="629.8230369766618">
  <!-- svg-source:excalidraw -->
  
  <defs>
    <style>
      @font-face {
        font-family: "Virgil";
        src: url("https://excalidraw.com/Virgil.woff2");
      }
      @font-face {
        font-family: "Cascadia";
        src: url("https://excalidraw.com/Cascadia.woff2");
      }
    </style>
  </defs>
  <rect x="0" y="0" width="965.8013949924044" height="629.8230369766618" fill="#ffffff"></rect><g stroke-linecap="round" transform="translate(131.0079477528476 521.1895225723649) rotate(0 62.6064453125 48.346435546875)"><path d="M0 0 C0 0, 0 0, 0 0 M0 0 C0 0, 0 0, 0 0 M-0.74 6.41 C0.55 5.01, 2.1 3.3, 5.42 0.85 M-0.14 6.05 C0.66 4.84, 2.16 3.53, 5.26 0.19 M1.43 10.54 C2.21 8.7, 5.7 5.81, 9.08 1.2 M0.53 12.3 C3.87 7.15, 8.08 2.41, 9.89 0.04 M-1.36 17.6 C5.13 10.51, 9.56 6.82, 17.37 0.86 M0.28 17.8 C5.88 12.58, 10.3 5.85, 15.71 -0.01 M0.68 24.9 C5.81 18.89, 9.7 14.03, 20.86 -0.89 M0.85 24.83 C5.57 17.39, 12.22 8.7, 22.11 0.65 M-0.18 31.5 C6.86 23.22, 15.3 11.35, 28.19 0.11 M0.34 29.84 C6.44 22.62, 14.19 14.52, 27 0.29 M0.35 36.46 C11.99 23.45, 26.45 7.34, 31.18 1.83 M-0.69 36.94 C9.64 25.21, 20.92 14.05, 32.33 -0.99 M-1.76 44.43 C12.07 33.16, 17.92 21.01, 38.55 0 M-0.23 42.88 C12.85 27.8, 24.84 14.2, 36.48 0.5 M-1.52 49.6 C7.35 38.29, 19.4 26.21, 42.43 1.8 M-0.93 49.01 C10.48 36.42, 22.93 23.26, 42.33 0.66 M1.03 54.11 C13.49 39.76, 28.4 23.48, 48.49 1.62 M-0.68 54.63 C17.11 34.2, 34.85 15.39, 47.86 -0.72 M-1.17 59.8 C18.02 41.58, 37.31 21.51, 54.43 -1.38 M-0.02 60.67 C21.36 38.86, 41.01 15.72, 52.27 0.67 M-0.25 66.54 C13.26 49.66, 27.71 33.99, 60.11 0.55 M-0.67 67.09 C17.82 45.21, 35.5 24.13, 58.56 -0.68 M-0.12 72.27 C26.98 45.57, 48.32 17.13, 62.04 1.34 M0.28 72.78 C22.98 45.61, 47.66 17.15, 63.58 0.59 M-1.08 78.89 C16.39 63.23, 29.39 42.75, 67.51 0.85 M-0.67 78.49 C17.47 59, 32.74 39.52, 68.72 0.32 M0.1 84.69 C23.67 55.84, 50.91 25.03, 73.13 -1.49 M0.93 85.22 C15.36 68.07, 30.88 48.83, 73.9 -0.5 M-1.84 90.07 C26.14 62.15, 53.36 27.87, 78.85 1.04 M-0.86 90.87 C23.47 67.09, 45.76 40.55, 80.25 -0.02 M0.01 97.2 C32.94 57.7, 63.37 21.99, 86.61 0.12 M0.65 97.9 C26.21 65.93, 52.55 36.17, 84.12 -0.99 M6.65 96.92 C32.57 68.46, 58.73 36.55, 90.31 0.09 M6.35 97.21 C29.8 69.68, 53.69 42.36, 89.76 1.04 M10.68 98.33 C31.42 75.49, 46.87 54.63, 94.43 -0.37 M11.35 97.66 C36.66 67.33, 61.64 38.52, 95.35 0.23 M14.74 96.8 C46 66.21, 73.5 31.78, 100.09 -0.53 M16.92 97.08 C49.65 59.32, 83.85 20.38, 101.63 0.24 M20.19 95.24 C55.79 60.16, 89.7 21.69, 107.57 0 M21.73 97.5 C49.33 63.11, 78.45 31.57, 105.95 -1.22 M26.5 98.04 C54.93 63.5, 86.05 28.87, 110.43 1.09 M26.75 98.07 C51.06 71.39, 73.81 43.08, 110.94 -0.65 M31.15 95.47 C60.9 63.14, 90.35 28.68, 117.38 0.39 M31.68 97.39 C61.16 63.79, 90.85 30.33, 115.85 0.57 M37.66 97.43 C70.65 58.82, 103.83 24.48, 121.61 1.35 M36.57 98.26 C60.08 71.27, 84.08 43.79, 122.51 0.14 M44.21 97.05 C71.17 63.13, 101.98 28.69, 127.54 -0.09 M42.85 97.27 C75.02 59.88, 106.15 22.93, 125.52 0.49 M47.63 96.47 C70.31 72.84, 90.2 50.52, 128.03 7.9 M47.01 97.5 C68.72 74.01, 88.01 50.6, 126.03 6.19 M52.04 98.46 C72.89 77.28, 91.86 55.48, 128.29 13.23 M53.62 96.13 C75.28 71.97, 94.2 49.48, 127.18 13.05 M56.86 96.14 C76.07 78.47, 90.51 59.9, 124.67 19.32 M58.95 97.15 C81.47 68.97, 105.22 42.9, 125.42 19.57 M65.37 96.65 C79.9 79.3, 94.22 61.85, 124.57 25.84 M64.09 96.97 C88.65 68.38, 112.63 41.61, 125.96 24.61 M68.81 98.87 C81.85 84.19, 90.95 69.08, 127.8 32.61 M68.49 97.1 C81.86 80.78, 97 65.25, 126.64 31.29 M74.92 97.05 C90.38 82.12, 103.41 64.18, 128.51 38.03 M75.11 97.8 C87.04 81.53, 101.48 66.78, 127.38 36.37 M80 98.57 C93.36 84.25, 105.3 69.93, 125.18 42.8 M79.96 96.73 C93.12 82.75, 106.75 68.13, 126.78 43.96 M85.47 95.55 C98.87 79.47, 111.94 65.4, 126.61 48.31 M85.25 96.64 C99.19 81.19, 112.22 66.71, 125.55 50.83 M89.96 98.61 C100.3 85.65, 109.09 71.39, 125.21 56.62 M90.94 97.96 C101.24 84.3, 115.05 70.26, 126.36 56.42 M97.83 96.51 C106.36 83.97, 117.13 73.07, 124.38 60.38 M95.84 96.53 C103.24 88.32, 111.47 81.05, 126.77 61.7 M99.26 97.85 C109.05 86.86, 115.63 79.79, 126.38 67.27 M101.23 96.21 C109.58 87.19, 118.47 77.16, 127.61 67.56 M106.82 94.76 C113.45 88.38, 119.1 82.48, 124.4 73.69 M105.92 96.54 C114.6 89.04, 119.75 79.72, 126.61 73.49 M111.51 96.59 C117.12 91.23, 123.94 83.25, 126.5 81.18 M111.86 97.42 C114.15 93.65, 118.47 90.32, 126.83 80 M118.73 97.33 C119.45 93.64, 120.65 90.78, 126.8 86.31 M117.28 96.72 C119.04 93.98, 122.12 91.74, 125.83 85.67 M122.63 97.53 C123.5 95.81, 123.57 95.63, 126.61 92.67 M122.27 97.06 C123.37 96.14, 124.43 94.91, 126.2 92.42" stroke="#40c057" stroke-width="0.5" fill="none"></path><path d="M0.15 0.78 C42.32 0.82, 81.02 1.46, 125.12 0.13 M-0.14 0.21 C37.19 0.53, 73.22 -0.14, 124.95 -0.79 M125.98 0.17 C125.96 19.52, 125.89 41.19, 123.55 95.04 M124.93 -0.19 C124.86 27.5, 124.3 54.7, 124.71 97.33 M124.02 94.89 C81.68 96.09, 35.97 95.98, -0.58 95.16 M124.77 96.55 C79.92 97.4, 34.24 97.85, 0.38 96.28 M0.82 95.5 C-0.85 69.49, 0.29 37.47, 1.92 -0.26 M0.77 95.71 C1.63 74.05, -0.19 50.31, -0.68 0.11" stroke="#000000" stroke-width="1" fill="none"></path></g><g transform="translate(136.0079477528476 557.0359581192399) rotate(0 57.5 12.5)"><text x="57.5" y="18" font-family="Virgil, Segoe UI Emoji" font-size="20px" fill="#000000" text-anchor="middle" style="white-space: pre;" direction="ltr">Test</text></g><g stroke-linecap="round" transform="translate(598.8690317372225 520.7880027969743) rotate(0 62.6064453125 48.346435546875)"><path d="M0 0 C0 0, 0 0, 0 0 M0 0 C0 0, 0 0, 0 0 M-0.56 6.34 C1.42 4.18, 3.31 3.32, 4.33 0.12 M-0.5 6.12 C1.1 4.72, 2.52 3.37, 4.9 0.7 M-0.61 12.09 C3.21 8.8, 5.21 5.64, 12.1 1.23 M-0.15 11.86 C2.74 8.52, 5.06 5.5, 11.12 -0.71 M-0.71 16.93 C1.64 15.83, 8.73 10.99, 16.44 1.11 M0.58 18.67 C3.31 13.89, 7.41 9.56, 15.02 0.2 M0.73 24.8 C6.89 17.2, 14.53 6.25, 21.39 1.33 M-0.7 24.67 C4.4 17.44, 11.02 13.08, 21.2 0.5 M-0.67 32.12 C8.26 19.57, 18.33 11.36, 25.66 0.63 M-0.61 30.57 C5.55 24.34, 11.91 17.7, 27.12 -0.66 M-0.81 37.95 C12.48 23.13, 21.73 12.64, 32.34 0.53 M-0.62 36.84 C7.07 29.98, 13.58 20.75, 31.51 -1.09 M2.04 44.05 C8.05 31.83, 20.97 20.33, 37.33 -0.57 M0.81 41.53 C13.02 27.73, 23.74 15.21, 36.01 0.94 M-1.43 48.76 C14.62 32.34, 25.66 21.35, 41.91 0.23 M-0.93 49.3 C9.61 38.74, 18.49 28.5, 42.35 0.31 M0.37 55.44 C19.13 34.61, 35.84 16.03, 48.8 0.06 M-0.17 53.67 C11.53 42.38, 22.46 29.06, 47.86 -0.21 M-0.04 62.18 C18.97 43.15, 36 20.55, 54.72 -2.03 M0.68 61.81 C14.33 45.74, 27.34 29.52, 52.62 -0.37 M-1.32 66.21 C15.56 47.98, 35.46 29.14, 58.45 0.57 M-0.48 66.86 C21.08 41.81, 44.5 15.98, 59.05 0.24 M2.1 73.86 C13.8 56.83, 28.9 39.81, 65.41 1.77 M-0.55 72.89 C12.56 57.76, 25.45 44.48, 62.98 -0.16 M1.29 80.5 C18.74 55.5, 37.44 36.06, 67.69 0.45 M0.64 78.77 C22.78 52.52, 47.03 26.39, 69.24 1.13 M-1.22 84.93 C17.59 64.03, 33.52 44.29, 72.65 0.12 M-0.21 85.58 C15.52 65.32, 32.18 46.73, 74.79 -1.07 M-1.41 93.16 C25.55 60.69, 51.69 33.8, 78.96 -1.33 M0.72 92.3 C23.51 66.56, 45.23 41.64, 80.28 0.83 M0.82 95.98 C29.35 62.63, 63.63 26.72, 85.17 -0.03 M0.41 96.42 C32.7 58.86, 63.44 21.85, 85.16 -1.12 M5.58 97.98 C24.74 73.71, 44.93 51.86, 89.75 -0.33 M5.59 96.84 C25.81 72.97, 46.76 49.74, 89.27 0.21 M12.57 97.01 C31.57 71.72, 54.67 45.03, 95.69 0.75 M11.71 96.4 C34.06 69.75, 56.7 43.83, 95.94 -1.3 M17.41 98.29 C46.25 63.3, 72.77 31.88, 102.55 -0.64 M15.93 97.87 C42.83 66.61, 70.03 35.87, 101.56 -0.34 M22.42 97.62 C44.5 74.34, 64.54 51.09, 106.99 0.35 M21.34 96.19 C52.43 61.91, 81.97 25.89, 106.7 -0.57 M25.94 97.36 C61.29 57.67, 91.75 22.39, 110.9 -0.89 M26.87 98.37 C47.74 71.54, 70.14 45.59, 111.71 0.1 M32.27 96.81 C65.07 59.76, 96.97 25.13, 117.23 1.88 M32.69 96.88 C53.92 73.5, 72.74 50.5, 117.11 -0.14 M37.69 95.94 C61.35 72.3, 83.07 45.44, 121.38 -0.23 M36.86 97.32 C58.52 72.57, 78.71 50.56, 122.53 -0.05 M41.07 97.05 C59.38 76.24, 79.99 53.86, 127.88 1.43 M43.38 97.07 C73.89 60.65, 104.49 24.49, 125.87 1.3 M49.88 96.48 C72.09 71.97, 95.08 46.28, 125.68 6.46 M48.78 96.97 C74.35 67.12, 98.65 38.47, 126.15 6.94 M54.79 98.28 C77.78 72.02, 99.44 46.58, 125.98 11.59 M54.25 95.91 C79.51 66.63, 107.85 35.79, 125.92 14.13 M59.73 97.92 C75.59 78.85, 93.52 56.29, 127.08 20.18 M58.21 96.57 C83.99 67.88, 109.24 37.89, 125.51 18.78 M64.44 95.92 C76.7 80.43, 88.37 67.07, 128.26 24.84 M64.39 96.03 C81.9 76.73, 98.88 55.78, 125.61 26.13 M70.54 97.63 C81.9 79.57, 99.03 65.38, 125.16 33.41 M68.48 97.42 C92.63 72.11, 115.11 45.14, 126.02 31.65 M76.07 98.83 C92.24 77.19, 111.68 57.29, 125.65 37.39 M74.13 96.59 C92.45 76.67, 109.41 56.35, 126.2 37.4 M81.59 97.48 C91.36 85.28, 98.05 73.63, 125.94 41.62 M79.65 97.79 C95.75 80.44, 111.12 62.09, 126.77 42.78 M84.73 95.36 C97.05 82.41, 111.93 65.44, 126.45 48.71 M86.02 96.27 C101.27 79.41, 114.97 63.17, 126.01 50.82 M90.23 97.8 C101.26 80.81, 114.36 68.96, 127.17 56.99 M89.53 98 C100.95 86.17, 109.69 75.07, 126.72 55.18 M96.52 95.33 C108.75 82.44, 116.74 68.86, 124.97 60.46 M95.85 96.26 C103.63 89.67, 109.84 81.34, 126.08 62.01 M101.81 95.39 C111.23 85.27, 120.65 74.06, 127.58 67.19 M100.64 97.36 C108.05 89.22, 116.82 80.15, 127.1 67.36 M106.59 96.01 C109.52 93.41, 112.89 87.11, 127.57 75.05 M107.64 97.26 C112.63 88.36, 120.58 80.68, 127.21 74.88 M111.74 97.51 C116.77 91.64, 119.49 89.29, 124.32 82.1 M111.26 97.23 C117.81 91.24, 122.95 84.39, 125.7 81.13 M117.16 96.33 C118.43 93.23, 122.57 91.02, 125.68 86.44 M116.86 96.56 C121.05 93.06, 123.24 88.66, 125.86 85.76 M122.66 96.72 C122.83 96.37, 124.51 95.03, 126.04 92.61 M122.34 97.33 C123.49 96, 124.49 94.39, 126.33 92.83" stroke="#40c057" stroke-width="0.5" fill="none"></path><path d="M0.88 1.09 C38.35 1.23, 80.33 -0.36, 125.02 0.88 M0.83 0.56 C38.47 -0.37, 75.65 -1.06, 124.28 0.12 M125.84 -0.49 C126.14 28.45, 123.92 52.94, 124.91 94.83 M125.76 -0.03 C124.92 25.2, 124.43 51.77, 125.8 97.29 M126.6 94.99 C77.25 93.75, 27.53 94.04, 1.19 94.92 M124.92 97.16 C84.2 97.43, 45.52 96.1, 0.02 97.53 M-0.04 98.65 C0.7 60.61, 1.53 26.07, -1.27 -1.43 M0.94 96.94 C-1.63 70.27, -1.42 45.18, -0.66 -0.83" stroke="#000000" stroke-width="1" fill="none"></path></g><g transform="translate(603.8690317372225 544.1344383438493) rotate(0 57.5 25)"><text x="57.5" y="18" font-family="Virgil, Segoe UI Emoji" font-size="20px" fill="#000000" text-anchor="middle" style="white-space: pre;" direction="ltr">Deploy to</text><text x="57.5" y="43" font-family="Virgil, Segoe UI Emoji" font-size="20px" fill="#000000" text-anchor="middle" style="white-space: pre;" direction="ltr">production</text></g><g stroke-linecap="round" transform="translate(375.86335546769135 523.1301658829118) rotate(0 62.6064453125 48.346435546875)"><path d="M0 0 C0 0, 0 0, 0 0 M0 0 C0 0, 0 0, 0 0 M-0.17 5.96 C1.77 5.07, 2.27 2.52, 4.51 0.61 M-0.15 6.13 C1.18 4.97, 1.94 4.19, 5.07 0.68 M-0.06 12.57 C0.81 10.78, 5.99 8.32, 10.19 0.75 M-0.06 11.85 C2.93 8.12, 7.65 3.36, 10.01 -0.53 M-1.97 19.79 C5.74 14.42, 8.87 9.99, 14.39 1.14 M-0.37 18.11 C3.56 13.79, 6.58 9.73, 16.12 0.53 M-0.42 25.75 C6.98 14.94, 14.66 8.93, 20.05 1.11 M-0.49 23.38 C9.22 15.62, 16.19 6.4, 21.38 -0.16 M0.06 29.11 C11.27 19.48, 17.96 9.4, 24.54 0.97 M0.03 30.65 C7.15 23.31, 13.48 15.23, 26.79 0.6 M1.19 36.18 C8.11 28.31, 18.25 16.69, 30.01 -0.97 M0.29 37.61 C10.16 24.68, 19.18 13.26, 31.44 -1.05 M-1.73 42.97 C15.93 25.27, 29.24 8, 37.37 -0.48 M0.95 41.58 C11.81 28.92, 23.69 15.15, 36.87 -0.44 M1.52 47.17 C14.35 34.51, 28.06 16.56, 40.84 -1.75 M0.01 49.37 C13.29 34.37, 26.51 18.82, 43.2 0.24 M1.94 54.52 C14.34 40.66, 27.76 24.02, 46.02 -1.68 M0.35 54.68 C15.37 37.36, 29.86 21.19, 47.74 -0.37 M1.44 62.6 C14.17 44.64, 27.31 29.2, 52.46 -0.23 M0.22 61.8 C13.13 44.77, 27.88 27.16, 53.04 -0.17 M-1.31 67.15 C17.21 50.64, 30.69 33.25, 59.68 -0.66 M-1.23 66.99 C16.26 48.44, 32.7 31.03, 57.53 0.05 M-1.5 74.09 C14.46 54.98, 34.6 36.11, 61.8 0.07 M-0.14 72.34 C18.12 53.54, 35.18 32.48, 63.57 -0.69 M-0.85 77.43 C16.99 57.95, 36.09 35.78, 69.56 -0.95 M-1.04 78.79 C13.65 63.41, 28.59 47.64, 68.09 0.06 M0.29 83.71 C20.58 59.74, 41.05 37.25, 72.86 1.07 M-0.4 84.41 C23.73 57.3, 48.16 29.63, 74.65 -1.17 M-0.98 89.7 C18.52 70.51, 37.02 46.98, 78.88 -1.64 M0.92 91.16 C19.5 68.44, 38.81 47.11, 80.03 -0.08 M-1.57 98.03 C27.66 68.16, 52.1 38.24, 86.62 0.2 M0.84 96.47 C31.77 59.79, 65.1 22.51, 84.36 0.02 M5.58 96.18 C32.74 66.03, 58.36 35.49, 88.94 0.67 M5.47 97.14 C35.81 63.49, 64.88 28.65, 89.67 -0.09 M9.05 97.97 C39.87 61.56, 71.94 27.23, 95.14 0.32 M11.23 96.89 C40.61 63, 71.73 26.34, 96.02 -0.95 M17.28 95.64 C37.6 70.21, 62.87 43.85, 101.03 1.84 M16.75 97.34 C39.69 71.2, 62.22 44.62, 100.07 -0.69 M23.34 97.1 C40.46 76.54, 57.76 56.31, 107.47 -0.23 M22.14 97.24 C51.17 62.86, 81.46 29.53, 107.19 -0.42 M28.28 95.84 C54.36 66, 83.03 31.58, 110.48 0.2 M25.86 97.39 C57.35 59.91, 89.37 24.71, 112.04 -0.56 M33.01 95.37 C52.29 75.35, 71.02 55.13, 115.07 -0.86 M33.18 97.01 C60.11 64.34, 89.98 30.72, 116.01 0.56 M38.4 98.95 C62.56 69.65, 88.1 38.42, 120.66 -1.46 M37.75 96.43 C71.46 59.36, 104.64 21.02, 121.1 0.62 M41.8 97.21 C70.56 66.43, 96.36 38.68, 127.72 0.95 M42.71 96.71 C69.48 64.36, 97.53 33.29, 126.15 0.95 M49.14 97.9 C68.77 75.38, 86.77 50.52, 127.06 4.93 M48.26 96.34 C71.68 68.08, 96.96 39.89, 126.62 5.98 M55.48 97.51 C82.45 64.87, 107.64 31.6, 127.73 13.26 M52.79 96.87 C69.97 78.92, 84.9 61.38, 126.03 12.29 M57.05 99.05 C73.09 77.9, 91.97 59.82, 127.77 20.35 M58.45 97.55 C77.61 75.34, 97.2 52.12, 125.25 20.12 M63.85 95.63 C80.16 77.12, 101.86 55.4, 126.16 24.98 M64.24 97.03 C82.79 74.62, 101.74 53.95, 125.98 24.99 M67.69 96.25 C92.07 73.09, 111.21 48.82, 128.16 30.21 M69.63 97.98 C86.38 78.02, 102.14 59.55, 126.63 31.63 M74.75 97.4 C92.4 78.62, 105.65 59.45, 127.22 37.8 M75.61 96.75 C96.47 72.53, 115.8 49.97, 125.74 37.31 M81.66 96.81 C95.28 76.57, 113.21 55.65, 127.04 43.93 M80.33 98.05 C92.09 83.69, 103.88 68.93, 126.58 43.63 M84.05 97.11 C95.75 84.29, 105.25 73.59, 127.5 49.62 M86.18 96.6 C96.12 84.6, 108.09 71.34, 126.61 49.78 M88.6 95.52 C102.61 82.55, 118 67.47, 125.96 56.66 M91.35 97.75 C104.35 81.87, 118.41 64.87, 127.3 56.53 M97.64 95.54 C102.79 85.35, 112.04 75.47, 124.62 61.58 M96.96 97.17 C104.99 86.99, 112.64 77.72, 127.09 61.15 M101.16 96.64 C109.28 87.03, 119.08 77.07, 126.45 68.02 M100.67 97.52 C107.46 90.81, 112.27 84.51, 125.73 67.75 M105.44 97.92 C108.69 91.84, 115.83 88.65, 127.23 72.51 M105.72 96.07 C112.23 89.69, 118.34 84.73, 125.96 74 M113.05 95.87 C116.03 93.19, 117.82 89.54, 127.46 80.83 M112.55 97.37 C117.26 91.07, 120.92 86.69, 125.89 81.48 M116 96.18 C120.79 93.26, 122.84 89.75, 127.34 86.03 M117.75 96.85 C119.5 93.06, 122.32 89.94, 126.08 86.49 M121.92 97.47 C124.13 95.51, 125.05 93.74, 126.16 92.41 M122.37 97.28 C123.43 95.56, 124.74 94.62, 126.33 92.57" stroke="#40c057" stroke-width="0.5" fill="none"></path><path d="M-1.86 1.72 C42.38 -0.55, 84.75 0.2, 125.28 -0.28 M0.51 -0.1 C39.99 -1.5, 79.57 -0.58, 125.04 0.38 M125.77 1.16 C123.85 28.17, 125.21 57.77, 124.5 96.12 M125.2 -0.36 C125.23 27.76, 126.33 54.85, 126.09 96.1 M125.8 94.88 C98.33 94.09, 73.79 93.86, 0.39 95.81 M124.24 97.6 C89.79 96.86, 53.63 98.11, 0.64 97.1 M1.09 95.79 C1.95 73.17, -1.24 48.75, -0.66 1.53 M-0.89 96.08 C-1.59 77.34, -1.57 56.94, 0.72 0.93" stroke="#000000" stroke-width="1" fill="none"></path></g><g transform="translate(380.86335546769135 546.4766014297868) rotate(0 57.5 25)"><text x="57.5" y="18" font-family="Virgil, Segoe UI Emoji" font-size="20px" fill="#000000" text-anchor="middle" style="white-space: pre;" direction="ltr">Build &amp; </text><text x="57.5" y="43" font-family="Virgil, Segoe UI Emoji" font-size="20px" fill="#000000" text-anchor="middle" style="white-space: pre;" direction="ltr">Package</text></g><g stroke-linecap="round"><g transform="translate(280.09875936588855 569.0074658853434) rotate(0 29.819131257020437 0.3769057187553244)"><path d="M1.03 -0.06 C10.84 0.2, 49.7 0.31, 59.52 0.41 M0.12 -1.13 C9.72 -0.59, 48.72 1.38, 58.61 1.89" stroke="#495057" stroke-width="1" fill="none"></path></g><g transform="translate(280.09875936588855 569.0074658853434) rotate(0 29.819131257020437 0.3769057187553244)"><path d="M30.11 10.75 C40.16 8.16, 50.49 3.91, 59.04 3.55 M29.94 9.83 C39.36 7.66, 50.24 4.81, 58.7 2.2" stroke="#495057" stroke-width="1" fill="none"></path></g><g transform="translate(280.09875936588855 569.0074658853434) rotate(0 29.819131257020437 0.3769057187553244)"><path d="M31.14 -9.56 C40.64 -4.94, 50.6 -2, 59.04 3.55 M30.97 -10.48 C40.13 -5.41, 50.64 -1.02, 58.7 2.2" stroke="#495057" stroke-width="1" fill="none"></path></g></g><g stroke-linecap="round" transform="translate(830.5885043674044 521.230075412326) rotate(0 62.6064453125 48.346435546875)"><path d="M0 0 C0 0, 0 0, 0 0 M0 0 C0 0, 0 0, 0 0 M0.23 5.74 C1.17 4.01, 3.3 1.91, 4.51 -0.19 M-0.43 6.31 C1.84 4.46, 3.55 2.02, 4.8 0.37 M1.36 13.52 C4.39 8.23, 6.93 5.71, 10.07 -0.39 M0.21 12.53 C2.39 8.18, 5.46 5.14, 10.4 -0.64 M0.41 19.26 C3.8 13.3, 7.11 9.48, 17.04 0.78 M-0.47 17.84 C4.14 13.93, 8.82 8.85, 15.85 0.69 M-0.56 24.21 C7.05 16.49, 12.4 12.79, 19.33 1.1 M0.99 24.02 C5.72 18.59, 9.78 13.57, 20.92 0.75 M-0.17 29.9 C8.49 19.38, 16.76 10.69, 25.01 0.48 M0 31.35 C6.94 21.71, 16.12 11.83, 25.97 0.83 M1.68 37.33 C12.47 21.34, 22.93 9.59, 31.16 -0.19 M-1.15 36.49 C9.9 23.16, 21.34 11.44, 32.84 0.66 M-0.12 42.98 C6.81 33.97, 14.5 25.46, 38.22 -1.72 M0.38 41.66 C15.21 26.56, 27.82 10.82, 36.23 0.18 M1.82 48.31 C16.96 28.51, 31.27 11.65, 40.9 0.62 M0.68 48.75 C13.48 34.29, 26.79 18, 42.57 0.3 M1.66 55.86 C18.23 32.01, 34.6 12.8, 46.63 -1.57 M-0.67 54.91 C14.31 37.91, 28.69 20.38, 47.48 0.83 M-1.2 62.53 C17.38 37.22, 38.92 14.64, 54.5 1.52 M0.85 60.43 C16.37 41.67, 33.65 21.73, 52.62 -0.74 M0.11 67.67 C14.62 51.73, 27.82 33.06, 57.68 -0.8 M-1.12 68.27 C11.87 52.91, 23.5 39.56, 59.11 0.62 M1.69 74.62 C15.59 55.63, 27.75 41.21, 62.39 -0.43 M0.94 72.2 C17.97 53.02, 34.73 33.09, 64.48 0.34 M0.58 78.32 C19.1 59.74, 35.85 36.26, 70.28 -1.11 M0.04 79.87 C15.67 62.27, 28.93 46.29, 68.02 0.1 M-0.97 83.28 C23.5 58.31, 46.75 34.57, 73.45 0.83 M0.02 85.42 C17.18 65.86, 34.29 45.16, 73.7 0.62 M0.93 91 C19.22 68.29, 38.78 44.81, 80.8 1.83 M-0.13 92.32 C32.02 55.69, 62.15 19.41, 79.6 -0.43 M0.8 97.21 C17.2 78.44, 34.42 58.94, 85.05 -1.61 M-0.3 97.2 C29.19 63.78, 59.37 31.18, 84.81 0.37 M6.06 96.41 C29.09 68.78, 53.3 44.21, 89.1 0.4 M7.01 95.93 C26 73.24, 45.97 50.92, 90.79 0.07 M10.98 97.07 C28.62 77.52, 45.15 59.75, 97.02 -1.6 M11.58 97.31 C37.19 66.63, 64.51 34.93, 96.36 0.13 M15.44 99.3 C46.88 62.72, 80.05 26.39, 100.47 0.98 M16.22 98.31 C47.21 59.76, 78.37 23.21, 101.03 0.35 M22.02 97.71 C54.78 60.31, 86.67 22.77, 105.65 -1.99 M20.8 97.41 C50.59 64.42, 80.1 30.08, 105.94 -0.35 M27.73 96.99 C58.75 59.83, 92.08 24.92, 111.71 2.01 M25.99 97.79 C45.41 76.94, 63.42 53.94, 111.27 -0.07 M32.31 97.93 C62.76 62.9, 88.19 32.51, 117.06 0.17 M32.49 97.81 C64.39 59.54, 97.71 22.32, 116.48 -0.32 M38.66 96.8 C66.38 61.6, 95.23 30.09, 121.07 -0.06 M37.44 97.95 C67.5 62.25, 97.51 29.36, 120.99 0.03 M41.74 98.58 C63.41 74.54, 83.21 50.4, 127.15 1.35 M42.32 96.56 C66.51 70.82, 89.32 43.87, 127.23 0.69 M49.08 96.34 C75.8 64.47, 102.72 31.72, 128.37 6.07 M47.37 96.81 C75.3 67.5, 100.65 38.03, 127.26 7.43 M53.65 96.51 C80.59 64.4, 111.09 28.33, 127.76 11.14 M53.47 96.44 C70.83 77.3, 85.22 58.41, 126.98 13.46 M58.33 98.23 C73.71 81.91, 89.1 62.53, 125.44 18.15 M58.58 96.66 C77.18 74.32, 98.12 52.53, 126.25 19.06 M64.85 98.62 C81.94 76.83, 99.72 57.09, 126.92 23.49 M63.62 95.97 C84.05 74.82, 101.92 54.3, 127.2 25.37 M70.21 96.14 C84.22 83.88, 93.89 66.89, 124.85 31.94 M68.89 97 C88.45 74.75, 108.12 51.82, 126.88 32.57 M75.64 95.84 C90.2 79.24, 105.98 62.9, 125.27 36.72 M73.98 96.39 C94.7 72.96, 114.26 51.95, 127.54 37.36 M78.99 96.76 C96.21 77.09, 116.82 54.45, 126.07 44.79 M80.15 97.58 C94.94 78.31, 112.23 58.58, 126.03 42.89 M83.74 97.13 C93.43 87.32, 103.7 74.85, 127.27 48.94 M86.27 96.69 C101.52 80.07, 115.65 62.87, 126.02 50.33 M91.4 97.81 C99.62 88.2, 106.81 81.71, 124.7 57.32 M91.2 97.37 C103.82 81.78, 119.29 64.63, 126.74 54.93 M94.4 95.49 C106.1 82.3, 118.62 70.34, 125.8 61.02 M95.73 96.6 C107.62 83.96, 118.49 70.01, 126.63 61.18 M100.64 98.06 C108.43 87.99, 117.06 77.37, 125.8 68.16 M100.92 97.58 C107.28 88.3, 114.34 80.57, 126.59 67.33 M106.3 97.92 C112.19 92.42, 114.31 85.82, 128.26 75.14 M106.11 97.56 C111.59 91.72, 114.67 87.35, 126.41 74.3 M112.38 95.29 C118.71 92.3, 122.75 85.5, 125.25 80.75 M111.2 96.66 C117.85 90.35, 123.77 84.64, 126 80.22 M117.52 95.85 C119.56 95.34, 121.03 92.4, 125.57 85.85 M116.88 96.04 C120.23 92.56, 124.25 89.77, 126.92 85.73 M122.46 96.84 C123.29 95.88, 124.01 94.92, 126.29 93.06 M122.21 97.13 C123.82 95.72, 124.8 93.95, 126.15 92.73" stroke="#40c057" stroke-width="0.5" fill="none"></path><path d="M0.13 -0.19 C26.77 0.12, 51.52 0.49, 126.88 1.13 M-0.79 -0.93 C44.08 0.15, 88.29 0.41, 125.53 -0.25 M123.56 -0.31 C123.91 31, 125.2 63.04, 126.3 96.63 M125.85 0.59 C125.46 29.75, 124.27 56.84, 125.91 95.84 M123.68 97.88 C82.2 96.73, 41.85 96.05, -0.59 97.62 M124.8 96.71 C100.7 97.8, 74.93 96.57, -0.02 97.67 M-0.26 95.43 C-0.99 61.74, 1.97 26.13, 1.88 0.49 M0.11 96.03 C-0.24 76.97, 1.52 55.65, 0.79 -0.08" stroke="#000000" stroke-width="1" fill="none"></path></g><g transform="translate(835.5885043674044 557.076510959201) rotate(0 57.5 12.5)"><text x="57.5" y="18" font-family="Virgil, Segoe UI Emoji" font-size="20px" fill="#000000" text-anchor="middle" style="white-space: pre;" direction="ltr">Smoke test</text></g><g stroke-linecap="round"><g transform="translate(515.0644228271117 572.8207535154972) rotate(0 29.879043420104807 0.34000692928384524)"><path d="M-0.12 0.53 C10.13 0.45, 51.11 -0.43, 61.39 -0.39 M-1.64 -0.24 C8.46 -0.14, 50.03 1.2, 60.47 1.07" stroke="#495057" stroke-width="1" fill="none"></path></g><g transform="translate(515.0644228271117 572.8207535154972) rotate(0 29.879043420104807 0.34000692928384524)"><path d="M33.02 11.03 C40.22 8.5, 50.53 6.28, 61.49 0.86 M32.27 10.79 C40.36 8.61, 48.03 5.57, 60.75 1.64" stroke="#495057" stroke-width="1" fill="none"></path></g><g transform="translate(515.0644228271117 572.8207535154972) rotate(0 29.879043420104807 0.34000692928384524)"><path d="M33.28 -9.49 C40.42 -5.96, 50.65 -2.13, 61.49 0.86 M32.53 -9.73 C40.38 -6.3, 47.99 -3.73, 60.75 1.64" stroke="#495057" stroke-width="1" fill="none"></path></g></g><g stroke-linecap="round"><g transform="translate(745.3256532958617 577.4279600171151) rotate(0 33.909182335518835 -1.2137680320586242)"><path d="M0.53 0.04 C11.93 -0.02, 56.96 -0.46, 68.47 -0.48 M-0.66 -0.99 C10.56 -1.42, 55.76 -2.29, 67.44 -2.47" stroke="#495057" stroke-width="1" fill="none"></path></g><g transform="translate(745.3256532958617 577.4279600171151) rotate(0 33.909182335518835 -1.2137680320586242)"><path d="M39.5 8.02 C48.46 6.54, 57.74 2.6, 67.24 -2.99 M39.26 8.68 C45.8 6.2, 51.66 3.79, 68.02 -3.3" stroke="#495057" stroke-width="1" fill="none"></path></g><g transform="translate(745.3256532958617 577.4279600171151) rotate(0 33.909182335518835 -1.2137680320586242)"><path d="M39.13 -12.5 C48.18 -7.69, 57.58 -5.35, 67.24 -2.99 M38.89 -11.84 C45.33 -9.79, 51.27 -7.67, 68.02 -3.3" stroke="#495057" stroke-width="1" fill="none"></path></g></g><g transform="translate(12.614015367295906 31.369274563259637) rotate(0 30 12.5)"><text x="0" y="18" font-family="Virgil, Segoe UI Emoji" font-size="20px" fill="#000000" text-anchor="start" style="white-space: pre;" direction="ltr">Lab 3</text></g><g transform="translate(10 207.064442952474) rotate(0 29.5 12.5)"><text x="0" y="18" font-family="Virgil, Segoe UI Emoji" font-size="20px" fill="#000000" text-anchor="start" style="white-space: pre;" direction="ltr">Lab 4</text></g><g stroke-linecap="round" transform="translate(129.91278754340294 10) rotate(0 62.6064453125 48.346435546875)"><path d="M0 0 C0 0, 0 0, 0 0 M0 0 C0 0, 0 0, 0 0 M-0.87 6.09 C2.1 4.67, 2.33 3.16, 4.81 0.29 M-0.35 6.45 C1.35 4.53, 2.48 3.22, 4.9 0.55 M-0.61 13 C1.63 8.13, 4.62 4.65, 11.82 0.48 M0.75 11.43 C3.64 9.24, 5.51 5.82, 10.46 0.04 M-1.13 17.99 C2.25 14.91, 6.19 9, 16.03 0.02 M-0.88 19.27 C3.37 13.01, 7.26 9.33, 14.75 0.12 M1.05 24.1 C7.67 13.52, 15.96 8.45, 21.13 -1.85 M0.92 23.46 C6.05 18.28, 11.03 11.88, 21.17 -0.24 M-0.24 29.29 C9.37 16.56, 19.53 7.74, 26.28 1.43 M0.32 30.98 C7.6 21.79, 16.16 11.96, 25.95 -0.13 M-0.86 37.14 C13.23 22.74, 25.54 7.7, 30.88 0.59 M-0.98 37.62 C7.83 27.25, 16.34 19.52, 32.3 0.1 M0.72 43.11 C13.16 28.26, 25.39 11.05, 37 -1.6 M-0.69 42.69 C12.15 29.51, 22.84 17.08, 36.99 0.58 M0.87 50.44 C13.86 31.88, 32.09 14.57, 43.85 -0.65 M-0.07 48.95 C12.06 33.58, 25.93 18.5, 42.41 0.49 M0.6 56.54 C15.57 38.89, 30.81 21.04, 45.93 1.33 M-0.49 53.98 C16.92 34.9, 32.71 16.33, 47.21 -0.22 M-0.3 60.78 C16.87 43.15, 34.68 22.01, 51.53 1.34 M-0.84 61.89 C19.46 36.94, 39.46 14.4, 52.34 -0.2 M-1.39 66.84 C18.42 45.22, 38.31 24.03, 56.84 -0.86 M-0.08 66.67 C17.42 47.31, 35.1 26.57, 57.69 0.98 M-0.22 74.7 C22.05 44.01, 48.55 19.76, 64.48 -1.05 M0.6 72.15 C18.48 52.43, 36.8 31.2, 64.16 -0.55 M-1.01 78.53 C14.68 60.9, 30.72 44.11, 69.55 1.17 M0.71 78.86 C16.77 59.61, 35.09 39.17, 68.25 0.73 M1.28 83.17 C26.09 52.67, 52.73 23.84, 74.25 0.01 M0.87 84.46 C18.39 64.25, 35.22 44.1, 74.17 0.36 M1.02 89.81 C24.72 63.51, 48.33 34.62, 77.88 -0.75 M0.37 92.41 C21.98 65.82, 43.25 42, 78.42 -0.42 M-1.57 95.65 C31.51 65.13, 58.87 31.56, 83.44 -2.15 M0.33 97.58 C31.76 61.87, 60.65 28.11, 85.91 -0.03 M5.58 96.83 C30.36 70.58, 50.52 45.97, 91.69 1.69 M5.14 96.16 C26.72 71.4, 47.73 46.39, 90.5 -0.89 M11.94 97.99 C34.23 70.28, 58.92 43.36, 95.7 1.24 M10.57 97.18 C42.42 61.63, 72.11 26.76, 95.16 -0.76 M14.72 96.28 C36.33 74.64, 55.21 54.48, 98.89 -0.75 M15.65 97.52 C41.11 69.53, 64.44 42.98, 100.5 0.91 M23.61 98.65 C56.68 58.2, 88.83 23.46, 105.67 0.43 M21.93 97.12 C45.46 70.58, 67.83 43.91, 106.92 -0.36 M28.18 95.79 C55.9 66.82, 83.55 36.39, 111.41 -0.84 M26.43 97.91 C46.85 74.37, 67.26 51.97, 111.17 -0.42 M33.73 98.51 C62.07 63.79, 91.91 24.96, 116.4 1.91 M31.97 96.18 C59.85 65.84, 86.81 34.46, 115.79 0.92 M37.38 95.47 C67.41 65.2, 96.17 28.82, 123.19 -0.86 M36.88 97.27 C55.65 76.12, 75.09 55.56, 121 -0.25 M44.63 96.88 C73.26 61.33, 106.4 27.61, 127.27 0.09 M41.99 97.19 C63.85 74.11, 84.17 52.32, 126.89 1.81 M49.42 96.14 C72.54 71.35, 92.82 42.63, 126.34 8.15 M48.29 97.3 C70.94 71.61, 93.1 44.88, 127.29 5.84 M54.69 97.56 C71.67 72.93, 93.95 50.1, 128.2 12.98 M54.01 95.95 C77.91 68.87, 102.57 39.75, 127.1 12.67 M60.43 98.06 C83.59 67.38, 110.49 39.11, 125.52 18.06 M58.2 97.19 C83.26 69.15, 107.96 39.99, 125.66 18.74 M64.29 98.83 C86.56 68.98, 109.66 43.97, 127.81 25.36 M63.81 96.32 C80.78 77.65, 97.65 57.94, 126.2 25.7 M69.58 99.01 C83.63 81.72, 95.99 69.35, 126.7 31.22 M69.35 96.66 C87.9 76.07, 105.5 53.28, 125.71 32.34 M73.87 95.41 C89.05 81, 102.51 61.49, 125.92 36.83 M73.89 97.14 C87.32 82.93, 99.16 68.41, 126.38 37.96 M81.06 96.19 C94.01 79.99, 112.02 63.88, 127.3 43.93 M80.73 96.97 C92.36 81.77, 105.89 66.73, 126.2 44.07 M85.89 96.52 C93.58 84.08, 105.57 75.54, 124.72 49.22 M84.47 97.29 C101.09 77.76, 118.06 60.91, 126.39 49.76 M90.09 96.3 C104.74 81.84, 114.71 66.01, 125.44 56.27 M90.59 97.85 C102.51 83.59, 113.64 71.24, 127.28 55.63 M94.84 95.82 C100.21 87.92, 106.4 83.38, 125.42 61.54 M96.54 96.64 C102.88 87.37, 111.87 79.48, 127.19 62.68 M100.92 97.48 C107.71 89.99, 114.15 82.86, 125.26 66.73 M101.37 96.58 C108.97 87.33, 117.76 77.49, 126.85 66.73 M105.24 97.46 C114.58 87.92, 122.56 78.78, 126.26 72.55 M106.79 97.11 C112.65 90.72, 116.65 85, 127.02 75.07 M112.86 95.38 C116.54 93.32, 121.24 87.45, 126.3 79.07 M110.78 96.94 C118.35 90.97, 123.02 83.72, 126.88 80.86 M117.55 97.64 C119.59 95.17, 121.96 92.28, 126.99 87.25 M116.87 97.34 C119.17 93.31, 122.02 91.2, 126.84 86.07 M122.29 97.07 C123.42 95.91, 124.89 94.41, 126.8 92.74 M122.45 96.81 C123.57 95.72, 124.17 94.78, 126.5 92.75" stroke="#40c057" stroke-width="0.5" fill="none"></path><path d="M0.97 -1.48 C39.38 -1.29, 78.04 -3.08, 124.69 0.88 M-0.69 -0.42 C26.11 -0.71, 54.94 -0.35, 125.38 0.8 M123.28 0.36 C125.38 26.97, 125.56 49.58, 124.66 96.13 M124.38 -0.05 C125.41 28.66, 126.15 58.21, 125.22 97.07 M123.38 96.55 C80.35 97.04, 37.94 99.54, -1.81 96.44 M124.39 97.67 C96.86 96.17, 70.8 96.47, -0.57 97.36 M-0.58 98.41 C0.62 72.71, 1.66 53.66, 1.78 -1.91 M0 97.53 C0.44 64.96, 0.06 33.03, 0.79 -0.84" stroke="#000000" stroke-width="1" fill="none"></path></g><g transform="translate(134.91278754340294 45.846435546875) rotate(0 57.5 12.5)"><text x="57.5" y="18" font-family="Virgil, Segoe UI Emoji" font-size="20px" fill="#000000" text-anchor="middle" style="white-space: pre;" direction="ltr">Test</text></g><g stroke-linecap="round" transform="translate(130.9985385470918 170.3445790608722) rotate(0 62.6064453125 48.346435546875)"><path d="M0 0 C0 0, 0 0, 0 0 M0 0 C0 0, 0 0, 0 0 M0 6.19 C1.34 4.53, 2.37 3.45, 4.43 0.86 M-0.38 6.39 C1.39 4.74, 3.34 2.69, 4.77 0.2 M-0.52 12.53 C5.47 6.58, 7.17 3.84, 11.71 1.14 M-0.19 11.81 C3.27 8.58, 7.55 3.57, 10.11 0.22 M1.78 17.58 C5.86 11.28, 10.05 7.33, 15.91 -0.19 M-0.39 18.68 C2.89 14.07, 7.13 8.8, 15.39 0.6 M0.62 22.41 C3.75 19.78, 7.8 11.79, 22.17 -0.48 M1.11 24.69 C5.59 18.91, 10.05 11.4, 21.79 -0.87 M1.44 28.74 C7.41 20.72, 17.51 12.72, 25.5 -1.02 M0.83 30.24 C8.69 20.54, 18.38 11.16, 25.79 0.59 M-1.07 36.03 C9.29 22.99, 22.52 10.38, 31.56 -0.44 M-0.73 37.25 C8.84 26.64, 18.36 15.9, 32.47 -1 M0.52 41.18 C9.9 29.13, 20.21 17.53, 35.35 -1.15 M0.49 42.23 C13.59 28.46, 25.23 12.76, 36.74 -0.43 M0.18 48.1 C9.08 38.61, 20.92 26.24, 44.15 -1.97 M0.8 48.36 C15.96 31.14, 30.49 12.83, 42.27 -0.51 M0.63 55.76 C14.46 37.76, 32.84 18.29, 47.94 -0.85 M1.02 55.07 C16.37 38, 31.04 18.71, 46.86 -0.14 M-0.18 59.5 C12.63 46.8, 23.41 32.78, 54.39 0.44 M-0.15 61.92 C16.16 40.01, 33.67 22.17, 53.42 0.44 M1.19 67.1 C14.21 52.11, 26.49 37.28, 59.22 1.65 M0.19 68.17 C12.19 53.22, 25.62 38.42, 57.28 -0.44 M-0.6 72.36 C21.76 50.63, 37.47 27.87, 65.2 -0.68 M-0.26 72.84 C17.21 54.25, 33.99 33.45, 63.18 -1.08 M0.05 78.62 C17.44 62.47, 33.93 43.83, 68.58 0.15 M0.76 79.88 C24.95 49.08, 51.29 20.5, 68.63 -0.53 M-0.04 84.86 C17.76 61.55, 39.11 39.68, 73.98 0.25 M-0.71 84.72 C22.08 59.11, 45.25 33.48, 74.84 0.23 M-0.41 93.01 C23.72 64.04, 51.29 33.46, 80.9 -1.5 M-0.45 91.1 C23.89 63.13, 47.71 34.19, 80.09 0.15 M0.01 97.22 C19.1 74.24, 38.23 51.4, 86.59 -0.17 M-0.15 96.94 C32.31 59.5, 66.44 21.07, 84.68 -1.09 M5.2 96.45 C34.29 63.25, 61.53 34.09, 88.53 0.56 M6.93 96.38 C33.24 66.07, 59.58 34.22, 90.31 0.86 M12 97.6 C32.97 68.69, 56.7 45.1, 95.36 -0.32 M10.78 97.51 C33 71.08, 55.91 45.95, 95.01 -0.25 M16.85 97.22 C40.36 69.16, 62.78 45.28, 101.29 0.21 M15.43 97.56 C37.23 74.52, 58.11 49.41, 100.51 0.64 M20.88 96.35 C42.95 71.17, 65.27 46.49, 105.08 0.47 M20.97 96.33 C51.25 64.01, 79.45 29.21, 107.16 -1.27 M25.69 96.12 C62.21 60.13, 94.18 20.49, 112.45 -0.6 M27.29 97.25 C56.66 61.86, 87.63 27.48, 111.37 -0.77 M33.56 95.77 C62.98 62.11, 92.7 28.46, 114.36 0.65 M31.3 95.98 C50.33 76.47, 69.33 54.73, 115.81 0.88 M35.96 95.99 C61.83 70.71, 85.96 44.34, 120.76 -1.91 M37.37 97.26 C58.07 73.51, 77.69 49.51, 122.12 0.11 M42.42 96.2 C68.14 67.27, 92.68 38.37, 127.61 0.19 M43.19 96.74 C72.74 63.28, 100.53 30.35, 125.96 0.89 M49.02 97.91 C77.07 63.03, 110.7 28.09, 126.55 7.04 M48.22 97.87 C71.38 71.05, 94.42 43.26, 127.6 6.3 M55.29 97.99 C80.79 65.92, 109.46 36.07, 125.18 12.16 M53.56 97.65 C78.81 67.85, 104.29 39.11, 126.16 13.82 M56.69 96.02 C80.28 72.23, 104.36 45.43, 126.16 19.54 M58.39 97.6 C76.6 77.02, 94.88 56.9, 125.72 19 M65.5 95.55 C76.55 81.38, 93.82 66.21, 127.58 26.03 M63.85 97.48 C86.23 72.74, 107.43 47.91, 125.62 25.28 M67.28 95.48 C88.13 72.78, 110.4 49.95, 124.65 30.84 M69.46 98.22 C86.17 78.82, 103.25 59.47, 127.14 32.1 M73.82 95.31 C89.61 82.59, 99.03 68.01, 127.96 35.62 M75.02 97.72 C84.38 85.45, 95.6 72.28, 125.75 36.46 M79.56 98.5 C92.38 84, 102.72 69.89, 125.98 41.79 M79.01 97.73 C92.57 83.71, 104.03 68.75, 126.5 42.78 M86.52 97.73 C102.27 78.26, 115.4 60.42, 127.28 50.54 M84.53 97.62 C97.07 83.52, 108.79 70.16, 126.3 50.51 M88.75 98.28 C99.88 85.08, 112.05 71.84, 126.27 56.49 M89.66 97.33 C100.36 85.69, 110.73 74.35, 126.6 56.2 M97.3 95.29 C105.56 87.84, 115.85 76.25, 126.92 63.16 M95.39 97.14 C106.64 85.3, 115.44 73.42, 127.04 62.6 M100.57 97.09 C107.58 91.18, 113.99 82.99, 127.06 69.09 M102.02 96.51 C109.71 86.35, 119.65 75.21, 126.75 67.25 M105.35 98.52 C113 90.41, 118.05 81.95, 126.78 75.14 M107.08 95.98 C112.12 89.77, 118.7 84.08, 126.73 73.34 M113.19 96.22 C117.46 94.46, 117.83 89.07, 124.74 78.54 M111.73 97.95 C117.8 91.71, 121.62 85.77, 127.12 80.3 M117.34 97.59 C121.11 93.21, 122.45 90.7, 126.07 84.95 M116.85 96.62 C119.53 94.88, 120.52 92.02, 126.76 86.65 M122.6 97.34 C124.01 95.31, 124.81 95.13, 126.52 92.23 M122.36 96.92 C123.48 95.99, 124.46 94.68, 126.3 92.74" stroke="#40c057" stroke-width="0.5" fill="none"></path><path d="M1.4 -0.16 C39.49 0.53, 78.45 0.43, 126.35 -0.42 M-0.67 0.08 C29.7 -0.77, 58.39 -1.21, 125.25 0.25 M123.94 -1.55 C125.85 19.62, 125.06 44.33, 125.6 97.76 M125.47 0.65 C125.71 21.73, 124.58 43.23, 125.62 96.31 M125.87 95.07 C79.2 94.27, 32.56 95.08, 0.28 95.06 M125.04 97.23 C95.61 96.15, 64.42 97.34, 0.8 97.05 M-1.01 95.2 C-0.54 66.32, -0.8 36.21, 0.66 -1.67 M-0.67 96.71 C0.11 71.77, -0.1 45.11, 0.03 0.44" stroke="#000000" stroke-width="1" fill="none"></path></g><g transform="translate(135.9985385470918 206.1910146077472) rotate(0 57.5 12.5)"><text x="57.5" y="18" font-family="Virgil, Segoe UI Emoji" font-size="20px" fill="#000000" text-anchor="middle" style="white-space: pre;" direction="ltr">Test</text></g><g stroke-linecap="round" transform="translate(375.85394626193556 172.28522237141908) rotate(0 62.6064453125 48.346435546875)"><path d="M0 0 C0 0, 0 0, 0 0 M0 0 C0 0, 0 0, 0 0 M0.19 5.84 C1.15 4.84, 1.42 4.32, 5.2 0 M-0.35 6.68 C1.26 5.05, 2.23 3.15, 5.31 0.69 M1.59 11.11 C1.94 9.95, 6.44 7.24, 11.58 0.77 M-0.44 12.82 C2.28 9.68, 3.99 7.34, 10.97 0.44 M0.58 17.38 C3.03 15.31, 7.62 9.22, 14.77 1.33 M-1.08 18.6 C2.6 14.01, 6.57 10.76, 14.9 0.68 M-0.94 25.49 C6.62 13.59, 17.81 4.66, 20.19 -2.05 M0.18 24.71 C4.06 17.5, 10.18 12.13, 21.26 -0.15 M-0.49 29.91 C10.7 20.64, 17.39 8.29, 26.91 -0.18 M-0.11 30.61 C8.65 22.07, 15.43 12.29, 26.59 -0.62 M-1.79 35.18 C8.8 25.92, 15.46 18.38, 31.73 0.8 M-0.38 37.59 C11.09 24.7, 22.82 10.2, 31.73 -0.57 M-0.74 41.2 C10.54 28.63, 21.54 14.89, 37.87 -1.05 M0.46 43.03 C8.06 31.93, 17.76 21.35, 36.36 -0.12 M-1.69 50.83 C12.75 35.57, 27.94 16.76, 43.88 1.8 M0.74 49.55 C15.4 30.8, 31.76 11.3, 42.85 0.13 M-1.12 55.91 C16.08 37.39, 29.93 19.47, 48.1 1.74 M1.22 55.52 C10.36 41.89, 20.1 29.95, 46.72 -0.01 M0.74 60.6 C18.63 38.86, 38.9 18.7, 53.55 1.25 M-0.42 59.99 C20.17 38.2, 40.38 15.04, 52.5 -0.5 M0.25 67.46 C11.17 53.7, 26.1 39.26, 56.46 0.28 M-0.41 67.2 C12.16 52.58, 22.74 38.48, 58.19 -0.22 M2.02 72.94 C17.25 51.25, 39.2 29.75, 63.12 1.49 M0.85 73.76 C19.83 50.89, 37.59 28.8, 63.1 -1.15 M0.69 81.05 C23.45 55.39, 44.33 28.24, 70.34 1.66 M-0.53 78.68 C15.68 60.62, 32.34 40.08, 68.32 0.53 M-0.85 83.32 C23.9 57.77, 44.37 34.54, 74.42 0.88 M0.29 84.97 C26.68 56.84, 50.85 29.03, 74.58 0.21 M-0.99 92.19 C17.88 71.21, 34.18 51.85, 79.55 2.01 M0.32 91.54 C27.11 59.94, 55.08 29.68, 78.67 -0.23 M-0.44 96.25 C24.39 67.03, 51.54 40.31, 86.77 -0.17 M-0.36 97.97 C35.25 58.58, 67.89 18.98, 85.36 -0.65 M6.06 94.85 C26.38 74.22, 46.04 50.02, 90.4 0.49 M6.68 97.59 C38.07 59.22, 70.78 22.63, 89.8 0.25 M9.68 95.19 C30.05 74.69, 51.38 49.49, 94.96 -1.26 M10.15 96.23 C30.26 74.22, 49.3 52.22, 95.41 -1.24 M16.26 96.09 C43.02 66.85, 72.11 33.4, 99.65 1.3 M16.72 98.39 C38.17 73.15, 58.68 49.29, 100.31 0.98 M21.41 96.78 C45.09 71.27, 67.66 44.23, 107.24 0.1 M22.11 97.65 C45.81 69.39, 71.53 41.07, 107.2 -1.32 M28.23 98.53 C57.11 63.52, 87.19 29.53, 112.54 -0.34 M25.81 96.77 C47.21 72.81, 69.53 46.75, 111.8 0.17 M33.61 96.63 C64.14 61.86, 91.63 26.6, 114.66 -0.87 M31.31 97.26 C54.03 73.19, 75.17 49.57, 116.07 0.84 M38.65 97.79 C64.1 71.22, 85.37 40.12, 120.77 -0.16 M37.49 97.26 C63.39 66, 91.17 35.69, 121.9 0.28 M43.61 95.37 C63.96 71.88, 85.3 49.45, 127.08 -0.38 M43.56 96.34 C70.61 64.14, 98.38 32.5, 127.16 1.18 M46.33 98.76 C75.24 68.46, 100.47 36.25, 126.61 7.9 M48.43 97.38 C64.6 76.75, 82.34 57.61, 127.33 5.82 M53.2 96.65 C75.03 73.45, 93.02 47.93, 127.32 13.43 M53.67 97.4 C80.63 66.41, 106.8 35.54, 126.67 12.46 M57.56 98.37 C86.59 67.12, 112.13 36.94, 125.36 19.42 M58.85 97.39 C79.92 73.98, 98.97 49.69, 125.4 19.94 M62.66 97.17 C78.79 83.18, 91.82 67.04, 127.33 23.83 M64.5 97.17 C83.38 74.93, 100.89 53.64, 126.95 24.54 M68.09 95.58 C90.79 73.47, 107.06 52.29, 126.03 30.95 M69.47 97.26 C81.65 82.77, 93.45 70.08, 125.68 31.03 M76.72 96.66 C85.49 83.57, 99.69 68.89, 124.72 37.43 M73.89 97.65 C90.55 77.63, 106.04 58.54, 126.08 37.32 M81.13 97.38 C97.99 75.55, 114.99 54.21, 125.56 43.62 M80.52 97.72 C95.83 78.58, 111.26 60.55, 127.2 43.24 M86.57 95.88 C93.68 84.49, 105.86 74.71, 125.89 51.63 M85.71 97.03 C98.42 82.7, 110.62 68.71, 125.94 49.2 M89.38 96.8 C102.91 82.2, 112.87 72.09, 125.98 56.86 M90.76 97.21 C104.32 82.51, 116.27 68.39, 126.67 55.2 M95.91 98.61 C103.97 89.56, 111.48 80.91, 126.69 61.61 M96.86 96.76 C108.17 82.16, 121.06 69.64, 125.94 63.04 M100.99 98.89 C106.32 92.03, 112.98 85.38, 127.81 67.1 M100.46 96.93 C109.05 87.17, 117.08 78.2, 126.78 67.78 M106.86 97.66 C113.47 87.41, 122.38 80.2, 126.47 74.83 M106.22 96.53 C111.54 92.36, 116.56 85.1, 126.03 73.71 M113.6 98.72 C113.24 94.08, 116.6 87.82, 127.39 78.58 M112.4 97.81 C115.98 92.02, 122.68 85.28, 126.62 79.84 M117.84 96.84 C118.15 95.46, 121.25 90.43, 125.24 86.05 M117.61 97.09 C119.64 93.13, 123.4 90.61, 126.37 86.08 M122.92 96.57 C123.82 96.23, 124.98 93.96, 126.03 93.06 M122.49 97.19 C123.77 95.55, 125.01 94.23, 126.56 92.43" stroke="#40c057" stroke-width="0.5" fill="none"></path><path d="M0.38 0.75 C39.97 0.75, 80.62 -0.31, 123.82 0.99 M0.84 0.18 C47.73 -0.36, 94.16 0.15, 124.44 0.06 M125.8 -1.92 C124.39 30.57, 124.98 59.7, 123.63 97.02 M125.55 0.4 C124.67 39.12, 125.87 76.75, 125.89 95.94 M125.23 95 C94.34 94.79, 64.94 94.04, -1.21 96.38 M125.6 96.26 C87.96 98.12, 53.12 97.72, 0.12 95.85 M-1.36 96.53 C-1.13 58.66, 1.15 19.07, -0.72 -1.14 M-0.44 97.3 C0 69.64, 0.68 44.07, -0.58 0.17" stroke="#000000" stroke-width="1" fill="none"></path></g><g transform="translate(380.85394626193556 195.63165791829408) rotate(0 57.5 25)"><text x="57.5" y="18" font-family="Virgil, Segoe UI Emoji" font-size="20px" fill="#000000" text-anchor="middle" style="white-space: pre;" direction="ltr">Build &amp; </text><text x="57.5" y="43" font-family="Virgil, Segoe UI Emoji" font-size="20px" fill="#000000" text-anchor="middle" style="white-space: pre;" direction="ltr">Package</text></g><g stroke-linecap="round"><g transform="translate(280.08935016013277 218.16252237385072) rotate(0 29.53176007598502 0.14819721589333312)"><path d="M0.45 0.14 C10.44 0.3, 50.05 1.28, 59.84 1.21 M-0.77 -0.84 C9.1 -1.04, 49.25 -0.79, 59.09 -0.56" stroke="#495057" stroke-width="1" fill="none"></path></g><g transform="translate(280.08935016013277 218.16252237385072) rotate(0 29.53176007598502 0.14819721589333312)"><path d="M31.26 9.89 C40.34 5.86, 46 4.41, 60.61 -1.89 M31.7 8.98 C39.64 6.42, 47.48 3.2, 59.13 -1.19" stroke="#495057" stroke-width="1" fill="none"></path></g><g transform="translate(280.08935016013277 218.16252237385072) rotate(0 29.53176007598502 0.14819721589333312)"><path d="M31.52 -10.44 C40.57 -8.54, 46.15 -4.06, 60.61 -1.89 M31.96 -11.35 C39.99 -7.64, 47.76 -4.59, 59.13 -1.19" stroke="#495057" stroke-width="1" fill="none"></path></g></g><g transform="translate(16.371717664930202 366.95179918077224) rotate(0 29.5 12.5)"><text x="0" y="18" font-family="Virgil, Segoe UI Emoji" font-size="20px" fill="#000000" text-anchor="start" style="white-space: pre;" direction="ltr">Lab 5</text></g><g stroke-linecap="round" transform="translate(133.62288072374082 346.40008544921875) rotate(0 62.6064453125 48.346435546875)"><path d="M0 0 C0 0, 0 0, 0 0 M0 0 C0 0, 0 0, 0 0 M0 6.65 C1.83 4.04, 3.38 2.97, 5.66 -0.05 M-0.21 6.71 C1.35 4.53, 3.21 2.62, 5.18 0.65 M-0.62 12.83 C5.5 8.78, 7.41 1.17, 9.55 0.85 M-0.12 12.03 C3.84 8.16, 6.95 4.24, 10.96 0.19 M1.57 17.06 C5.79 13.05, 11.22 8.11, 13.71 -0.94 M-0.39 18.31 C5.17 12.66, 10.6 5.12, 16.04 0.75 M1.64 22.38 C4.6 18.26, 9.31 16.29, 22.84 -0.26 M0.16 24.05 C7.32 16.75, 12.68 8.71, 20.57 0.68 M0.62 30.78 C9.68 18.91, 20.16 6.52, 27.83 1.92 M-0.68 31.3 C9.06 20.22, 19.05 9.04, 25.59 0.76 M1.09 38.58 C13.49 21.41, 25.7 9.97, 33.05 -1.99 M0.2 37.77 C5.75 29.21, 13.92 19.81, 32.86 0.18 M0.71 42.24 C8.8 33.23, 14.81 24.04, 36.53 1.37 M-0.22 42.86 C8.46 31.52, 18.27 20.43, 37.32 -0.53 M-0.02 49.93 C12.63 32.82, 27.82 16.2, 42.9 -0.4 M0.66 48.85 C11.22 35.91, 19.87 25.31, 43.01 0.34 M-1.54 55.54 C11.06 41.34, 19.39 33.42, 47.81 1.87 M0.27 55.41 C18.54 34.15, 35.6 14.46, 47.47 0.5 M-0.73 62.04 C13.08 44.14, 26.82 31, 54.87 0.24 M-0.7 60.47 C21.15 36.77, 42.15 13.55, 53.65 -0.49 M1.32 67.53 C21.73 43.05, 46.22 15.58, 60.11 0.94 M-1.07 66.85 C20.52 44.54, 39.45 23.88, 58.3 -0.34 M-0.96 72.79 C21.3 47.23, 45.04 17.82, 64.89 1.71 M0.55 73.28 C14.33 56.99, 27.64 40.81, 63.89 -0.23 M0.15 78.86 C27.05 48.35, 55.8 18.23, 68.36 -0.89 M0.4 78.57 C16.01 58.74, 34.8 38.31, 69.05 0.04 M-0.15 83.09 C20.98 59.12, 46.31 33.93, 76.37 -2.19 M-0.14 85.16 C20.95 60.6, 42.8 35.39, 74.39 -0.07 M-0.67 92.46 C15.07 73.89, 33.16 55.53, 77.95 1.95 M0.84 90.96 C18.46 69.59, 35.67 48.45, 79 0.95 M0.7 98.89 C22.48 69.87, 45.76 44.24, 86.2 0.38 M0.69 96.22 C25.07 67.46, 51.19 37.8, 84.3 0.54 M7.28 97.75 C38.84 59.53, 67.2 26.54, 90.75 2.06 M5.51 96.57 C25.03 75.07, 44.19 53.1, 90.45 0.91 M11.58 97.08 C35.33 68, 61.58 41.61, 94.7 1.28 M12.02 97.74 C39.61 61.18, 70.28 27.7, 96.29 -1.12 M15.99 97.23 C43.61 65.44, 72.39 29.8, 99.07 1.07 M15.3 97.77 C48.98 61.05, 81.32 21.86, 99.71 0.71 M19.94 95.75 C51.75 62.41, 84.79 24.95, 107.7 -1.59 M21.86 97.39 C47.28 66.86, 73.06 36.88, 105.56 -0.03 M25.62 96.95 C59.67 59.63, 89.74 20.51, 111.73 -0.36 M26.32 98.15 C54.42 65.73, 81.82 34.52, 112.09 0.35 M32.22 95.94 C64.19 62.35, 91.65 26.95, 117.83 -1.55 M31.7 95.98 C48.27 78.23, 65.22 58.18, 116.16 0.31 M38.42 95.97 C57 73.08, 78.66 48.49, 119.98 -0.53 M36.79 97.05 C55.21 77.31, 73.6 56.21, 120.94 0.08 M41.3 95.71 C65.35 72.15, 85.07 50.9, 124.49 0.61 M43.08 96.58 C62.4 74.35, 82.24 52, 125.96 0.63 M46.78 98.61 C75.11 66.62, 97.84 40.3, 125.66 8.08 M48.13 96.75 C74.83 68.29, 99.81 38.09, 126.71 6.17 M52.54 96.16 C73.37 72.84, 96.12 47.5, 128.06 12.19 M54.54 97.47 C68.52 79.11, 84.21 61.1, 125.87 12.48 M58.52 97.25 C73.56 80.59, 91.43 60.97, 127.64 18.47 M59.27 96.28 C77.96 75.32, 96.1 51.78, 126.42 19.57 M65.78 95.43 C81.31 76.95, 100.14 54.26, 126.07 23.91 M64.63 97.17 C80.62 78.25, 97.97 57.95, 126.97 24.49 M70.98 98.29 C85.47 78.05, 102.34 61.84, 126.48 32.62 M69.64 96.42 C81.59 85.07, 92.33 70.62, 125.37 32.44 M73.31 98.68 C89.29 79.28, 106.37 61.51, 125.68 37.81 M74.94 97.45 C92.9 75.6, 111.4 54.78, 126.03 37.34 M80.93 96.14 C90.37 87.05, 96.71 75.85, 126.67 45.12 M80.2 96.67 C97.07 77.07, 114.16 59.08, 126.29 42.7 M85.89 96.1 C97.82 81.56, 112.95 66.64, 126.86 50.72 M85.04 96.29 C100.19 80.74, 112.99 63.83, 125.69 50.21 M90.62 95.28 C105.91 79.31, 119.46 66.12, 125.83 56.82 M90.42 96.25 C100.89 85.27, 112.09 71.99, 125.62 54.79 M94.77 96.92 C101.62 88.1, 109.15 81.3, 127.02 61.27 M95.55 96.93 C107.86 84.35, 117.9 72.39, 126.05 62.75 M101.77 96.18 C109.54 89.66, 117.9 78.13, 128.03 69.6 M101.29 97.14 C109.79 85.78, 119.01 74.49, 125.77 67.34 M105.65 95.39 C111.06 92.47, 113.29 87.21, 127.05 72.35 M107.08 96.83 C110.25 91.39, 115.3 86.6, 125.78 74.61 M113.57 97.38 C118.22 89.86, 124.95 82.61, 125.16 81.12 M112.31 97.04 C117.72 91.67, 122.52 84.36, 125.55 80.99 M116.9 96.77 C119.47 94.26, 121.89 90.6, 127.57 86.13 M117.29 96.68 C120.3 92.75, 123.64 89.55, 125.95 85.63 M121.84 97.17 C123.56 95.83, 123.88 95.02, 126.05 92.32 M122.38 96.86 C123.2 96.1, 124.17 94.91, 126.1 92.48" stroke="#40c057" stroke-width="0.5" fill="none"></path><path d="M-0.4 -1.13 C28.21 -2.86, 55.82 -2.28, 126.94 0.03 M-0.56 -0.62 C34.46 0.02, 67.84 -0.34, 124.35 -0.9 M124.13 1.68 C123.01 22.53, 123.74 47.29, 123.54 94.94 M125.58 0.18 C125.07 32.93, 124.63 66.44, 124.99 95.72 M126.36 97.2 C99.56 97.48, 73.71 98.56, 0.05 96.54 M125.03 96.98 C76.74 95.58, 29.69 95.73, 0.14 96.42 M1.8 97.01 C1.1 65.59, -0.56 37.96, -0.72 1.94 M-0.74 96.33 C-0.42 63.33, 0.58 28.79, 0.34 -0.78" stroke="#000000" stroke-width="1" fill="none"></path></g><g transform="translate(138.62288072374082 382.24652099609375) rotate(0 57.5 12.5)"><text x="57.5" y="18" font-family="Virgil, Segoe UI Emoji" font-size="20px" fill="#000000" text-anchor="middle" style="white-space: pre;" direction="ltr">Test</text></g><g stroke-linecap="round" transform="translate(601.4839647081158 345.9985656738281) rotate(0 62.6064453125 48.346435546875)"><path d="M0 0 C0 0, 0 0, 0 0 M0 0 C0 0, 0 0, 0 0 M0.14 5.92 C1.12 5.47, 2.64 3.38, 5 0.91 M-0.19 6.35 C1.62 4.44, 3.01 3.1, 5.38 0.35 M1.32 13.63 C2.7 6.64, 6.28 4.64, 10.86 -0.39 M0.51 12.02 C4.15 7.54, 8.09 3.54, 10.88 0.48 M0.69 19.12 C6.25 13.97, 8.82 4.62, 16.81 0.16 M-0.51 19.09 C3.24 13.57, 8.2 9.85, 14.66 0.94 M0.46 23 C5 21.21, 10.28 14.18, 21.49 -1.2 M0.64 24.26 C5.61 16.7, 11.86 10.74, 22.1 -0.05 M-0.39 30.64 C9.15 19.18, 19.97 10.82, 27.18 0.86 M0.05 30.88 C10.99 18.64, 19.2 8.12, 27.08 0.42 M1.23 35.5 C9.87 27.61, 18.63 14.05, 30.32 1.32 M-1.1 37.46 C10.01 24.19, 21 13.33, 31.15 0.17 M0.6 43.11 C12.31 27.27, 27.96 11.14, 36.1 2.05 M-0.74 42.78 C13.04 27.18, 27.55 10.76, 37.07 -0.12 M-1.15 48.64 C14.98 30.69, 29.36 14.93, 41.35 -0.9 M0.75 48.01 C14.1 31.57, 30.75 14.03, 41.6 -0.11 M1.26 52.92 C17.4 36.36, 35.33 16.57, 49 0.03 M0.8 54.21 C11.54 41.41, 22.96 28.29, 47.01 0.13 M-0.28 59.82 C19.96 39.16, 41.12 16.03, 55 -0.82 M0.08 60.31 C11.98 48.33, 23.58 34.86, 53.94 -1.09 M-1.03 68.23 C15.46 49.32, 30.51 34.34, 58.79 -0.93 M0.72 66.56 C15.04 52.13, 28.97 34.32, 58.81 0.76 M-1.63 73.71 C14.41 53.68, 32.17 39.88, 62.18 1.63 M1 72.73 C15.43 54.75, 30.81 37.3, 64.71 -0.71 M-0.43 79.98 C26.44 52.08, 50 20.29, 67.85 1.53 M-0.96 79.18 C23.51 52.32, 46.93 25.59, 68.86 1.05 M-1.19 85.02 C18.88 66.82, 37.41 43.57, 74.24 1.54 M0.08 85.39 C22.15 60.26, 43.57 35.71, 73.45 0.32 M-0.63 92.4 C23.88 66.6, 43.53 41.5, 78.03 1.77 M0.84 90.92 C24.75 61.6, 50.48 33.27, 79.1 1.03 M0.5 96.51 C29.52 63.36, 58.89 30.87, 85.02 -0.96 M-0.55 97.13 C31.24 61.37, 61.85 26.78, 85.72 -0.47 M7.75 95.19 C30.87 67.09, 58.71 37.79, 88.63 0.18 M5.77 97.34 C31.8 68.15, 58.34 38.56, 89.96 0.48 M10.89 96.85 C40.33 66.47, 66.39 33.53, 96.8 1.31 M10.23 96.46 C40.91 61.28, 72.96 24.03, 96.09 -0.33 M14.65 98.17 C34.35 73.07, 54.13 52.87, 102.44 1.2 M16.61 98.26 C35.42 75.15, 53.16 54.76, 101.4 -0.11 M19.88 98.94 C47.93 68.72, 75.68 36.75, 106.36 0.53 M22.07 96.75 C51.41 62.14, 79.52 29.4, 107.15 -0.27 M27.19 97.67 C56.51 60.18, 90.19 25.18, 111.71 -0.73 M26.87 97.27 C55.42 64.46, 83.8 32.62, 111.9 -0.51 M33.34 97.6 C59.14 64.59, 91.18 29.59, 114.28 0.68 M31.62 97.07 C52.64 73.83, 73.35 51.06, 115.84 0.71 M35.58 98.05 C59.84 70.4, 84.6 40.11, 120.17 0.9 M37.68 98.16 C65.59 66.9, 90.87 35.48, 121.44 0.27 M44.63 95.7 C63.21 77.2, 80.07 53.12, 124.91 1.27 M43.06 97.18 C73.24 63.07, 102.32 27.97, 126.46 0.3 M49.14 95.94 C73.49 67.82, 100.16 37.5, 127.09 5.39 M48.85 98.21 C79.25 61.99, 109.77 25.86, 126.61 7.71 M52.56 98.14 C80.25 67.88, 107.94 36.11, 124.6 12.9 M53.08 96.62 C73.04 72.35, 93.08 48.85, 125.78 13.52 M57.67 99.01 C77.59 77.05, 96.52 54.28, 125.79 20.55 M59.2 97.92 C83.58 67.24, 110.19 38.26, 126.1 20.5 M63.42 97.85 C77.01 80.97, 91.01 64.03, 125.81 24.57 M63.89 97.62 C86.92 70.24, 109.33 44.22, 126.3 24.98 M69.43 95.94 C82.89 82.69, 94.96 67.9, 124.3 30.17 M69.57 98.04 C82.42 81.29, 95.91 66.43, 126.34 31.01 M72.94 97.78 C90.79 79.16, 106.98 59.36, 127.67 35.63 M74.22 96.18 C86.3 82.35, 97.85 69.36, 125.7 37.85 M81.17 98.46 C96.05 77.34, 116.54 56.68, 127.56 41.62 M79.82 96.55 C96.41 79.13, 112.37 58.73, 126.73 43.91 M84.35 96.93 C95.1 87.07, 104.76 76.18, 127.1 51.22 M86.28 97.01 C96.69 83.28, 108.42 70.51, 126.99 50.28 M92.09 95.34 C102.46 86.1, 111.28 73.85, 126.64 55.54 M89.82 97.65 C97.54 88.71, 104.65 79.25, 125.83 54.85 M94.35 96.32 C106.08 84.94, 118.95 70.79, 127.46 61.24 M96.85 96.57 C102.42 89.92, 108.48 83.13, 126.18 61.4 M101.87 98.35 C111.01 85.91, 119.09 79.88, 128.06 68.61 M100.45 96.79 C108.78 86.43, 117.44 76.84, 125.73 68.19 M107.09 97 C109.53 91.76, 115.86 85.5, 124.61 74.89 M106.19 96.04 C111.71 90.6, 115.41 86.43, 127.35 74.82 M112.63 96.31 C116.62 92.02, 116.8 90.53, 127.18 80.3 M112.61 97.65 C117.83 89.75, 122.22 84.71, 126.36 80.8 M116.54 97.65 C118.59 94.45, 123.53 90.81, 127.23 87.19 M117.16 96.45 C120.1 93.72, 122.39 89.73, 126.3 86.5 M122.53 97.07 C123.21 95.86, 124.93 93.65, 125.81 92.33 M122.3 97.09 C123.27 95.9, 123.96 94.96, 126.53 92.38" stroke="#40c057" stroke-width="0.5" fill="none"></path><path d="M1.01 -1.85 C49.08 -0.56, 97.05 0.74, 124.68 0.56 M0.26 0.53 C42.16 0.94, 84.57 -0.13, 124.58 -0.41 M123.41 -0.38 C123.62 25.93, 123.02 47.18, 126.09 97.1 M124.87 -0.29 C124.79 31.17, 125.35 61.38, 124.33 96.34 M126.04 96.83 C82.66 98.24, 37.26 96.87, 1.69 98.53 M124.88 95.92 C91.83 96.43, 57.06 96.77, 0.03 97.13 M1.52 94.91 C-1.01 73.83, -1.59 53.12, 0.93 -1.05 M-0.93 96.82 C0.79 73.1, 1.05 50.59, 0.28 -0.13" stroke="#000000" stroke-width="1" fill="none"></path></g><g transform="translate(606.4839647081158 369.3450012207031) rotate(0 57.5 25)"><text x="57.5" y="18" font-family="Virgil, Segoe UI Emoji" font-size="20px" fill="#000000" text-anchor="middle" style="white-space: pre;" direction="ltr">Deploy to</text><text x="57.5" y="43" font-family="Virgil, Segoe UI Emoji" font-size="20px" fill="#000000" text-anchor="middle" style="white-space: pre;" direction="ltr">production</text></g><g stroke-linecap="round" transform="translate(378.4782884385845 348.3407287597656) rotate(0 62.6064453125 48.346435546875)"><path d="M0 0 C0 0, 0 0, 0 0 M0 0 C0 0, 0 0, 0 0 M0.01 6.78 C2.12 4.02, 3.2 2.97, 4.94 0.47 M0.09 6.25 C1.92 4.4, 4.1 1.82, 5.15 0.17 M-0.94 10.82 C2.63 8.61, 7.61 3.15, 11.61 -0.54 M0.32 11.9 C3.54 8.66, 6.59 5.36, 11.03 0.64 M0.91 20.19 C1.53 12.93, 8.26 9.85, 14.61 -0.2 M-0.73 18.06 C4.89 13.56, 8.02 8.55, 14.66 1.01 M0.87 25.97 C6.34 18.81, 9.51 12.67, 21.1 -0.29 M-0.54 23.75 C5.71 17.63, 13.47 9.73, 21.78 0.24 M0.01 29.85 C9.91 22.58, 17.53 12.01, 27.74 -1.07 M0.95 30.16 C9.37 19.3, 20.89 7.42, 26.04 0.96 M1.13 38.22 C13.01 20.97, 22.65 10.04, 32.26 0.81 M-0.05 36.25 C13.53 22.59, 24.33 8.2, 32.74 0.18 M-1.71 43.49 C10.21 31.43, 20.28 20.02, 38.18 -0.46 M-0.52 42.73 C13.23 27.52, 25.25 13.79, 37.29 0.31 M0.44 47.66 C15.46 31.51, 28.86 13.82, 43.73 1.43 M-0.9 49.24 C12.46 35.38, 23.56 20.54, 43.15 -1.04 M-0.22 56.3 C16.78 37.65, 34.44 16.85, 46.32 0.22 M0.17 54.88 C18.12 34.1, 35.82 12.84, 48.19 -0.15 M0.15 61.98 C20.63 40.03, 39.58 17.33, 51.41 -1.6 M0.22 61.1 C13.83 45.61, 27.49 29.63, 52.66 0.61 M1.33 66.23 C20 47.12, 36.71 24.52, 57.02 -1.44 M0.23 68.24 C13.81 50.55, 28.88 34.9, 57.53 -0.36 M-1.25 71.16 C20.32 53.5, 36.03 32.23, 62.63 0.6 M0.3 72.67 C20.51 49.13, 42.21 24.63, 64.46 -0.07 M1.23 81.02 C18.42 56.5, 36.73 37.28, 69.62 1.18 M0.33 78.89 C15.81 62.2, 30.61 45.96, 68.13 -0.06 M1.21 86.21 C17.88 65.83, 30.76 52.29, 74.21 -1.08 M0.31 85.06 C23.51 58.39, 45.66 32.22, 74.22 -0.58 M1.24 92.69 C26.74 60.81, 54.7 28.56, 79.9 1.77 M-0.31 90.91 C18.85 69.68, 38.94 46.77, 79.79 0.26 M0.93 97.17 C34.55 59.98, 66.41 20.64, 86.42 0.29 M0.28 96.56 C18.66 77.07, 38.14 55.29, 85.17 0.34 M5.2 97.75 C35.61 65.16, 63.16 29.17, 90.14 -1 M5.61 97.58 C30.95 69.14, 54.65 40.87, 90.37 0.35 M12.31 99.03 C35.68 69.35, 63.31 40, 97.03 1.66 M10.73 97.68 C43.69 60.79, 74.74 25.63, 95.01 -0.33 M14.5 95.81 C39.76 69.74, 67.78 41.51, 99.07 -1.4 M16.02 96.95 C42.94 64.64, 73.07 31.11, 100.72 -0.81 M21.21 97.96 C44 71.88, 62.72 50.93, 107.25 0.03 M22.21 96.26 C49.11 64.68, 79.27 31.58, 107 -0.86 M24.71 96 C50.44 69.71, 74.04 42.19, 111.91 -0.66 M27.09 97.34 C59.25 60.98, 91.07 23.31, 111.7 -0.02 M30.46 97.1 C54.18 70.83, 71.45 49.1, 115.11 -0.83 M31.76 96.34 C49.68 77.47, 66.2 58.5, 116.22 0.94 M35.49 98.47 C55.77 74, 75.54 52.9, 122.31 -1.01 M38.08 97.76 C58.87 70.36, 82.3 44.16, 121.21 -0.83 M43.37 98.61 C60.21 74.14, 80.48 51.96, 127.43 1.39 M43.48 97.18 C64.48 71.01, 86.94 45.41, 126.6 0.53 M46.62 98.66 C75.15 66.09, 105.34 30.31, 128.52 7.17 M48.45 97.21 C66.38 73.89, 85.53 53.29, 127.23 6.23 M53.69 97.68 C74.79 73.51, 90.46 52.2, 125.99 15.09 M53.43 96.26 C79.36 66.65, 105.19 37.88, 126.08 13.12 M59.35 98.01 C80.62 72.36, 98.99 51.19, 127.8 20.98 M58.19 96.43 C71.95 81.2, 85.25 66.47, 125.35 20.33 M63.67 96.54 C78.23 78.96, 92.18 63.28, 127.74 26.06 M64.74 96.31 C85.4 72.08, 105.28 48.94, 125.81 26.08 M70.41 98.03 C89.44 75.5, 107.39 49.9, 125.15 32.5 M68.76 96.88 C80.52 83.27, 93.98 67.48, 126.41 30.82 M74 98.44 C94.73 73.81, 117.05 48.26, 125.22 37.45 M74.51 96.3 C93.27 75.78, 111.64 54.78, 127.59 37.78 M77.97 98.23 C91.23 85.18, 103.63 68.43, 127.44 44.4 M80.19 97.78 C91.19 83.38, 103.11 71.38, 125.68 43.84 M85.87 97.67 C97.21 85.1, 108.23 73.21, 125.83 49.19 M84.89 96.42 C94.74 85.27, 106.16 73.71, 126.12 50.1 M91.71 98.17 C96.81 90.13, 105.04 80.32, 124.71 55.62 M89.99 97.06 C97.3 87.48, 105.03 78.91, 127.15 55 M94.91 97.55 C106.41 85.38, 116.13 74.68, 124.37 60.99 M96.03 97.11 C105.15 86.55, 114.82 74.22, 126.53 62.41 M102.74 95.43 C108.79 91.44, 115.28 83.02, 127.42 68.14 M100.18 96.4 C108.06 88.01, 115.71 80.02, 125.78 67.17 M105.23 96.44 C111.91 89.7, 114.04 86.97, 125.16 74.83 M107.09 96.02 C112.3 90.39, 119.95 83.6, 125.55 75.03 M113.66 95.62 C115.19 92.56, 121.74 86.53, 127.9 81.73 M112.33 96.19 C115.21 92.63, 120.27 87.56, 125.92 80.18 M116 97.4 C121.24 93.41, 123.7 91.25, 126.61 86.04 M117.29 96.95 C119.52 93.08, 122.61 90.82, 126.89 85.56 M121.79 97.47 C123.36 95.41, 124.37 93.97, 125.84 92.64 M122.38 96.92 C123.09 95.95, 124.43 94.8, 126.45 92.62" stroke="#40c057" stroke-width="0.5" fill="none"></path><path d="M1.42 -1.27 C32.2 1.19, 60.4 1.72, 126.04 -1.12 M-0.56 0.17 C28.99 -1.57, 59.07 -1.08, 124.74 -0.54 M124.14 1.47 C122.66 35.37, 125.21 74.64, 125.66 97.43 M124.43 -0.01 C124.66 29.78, 124 61.16, 125.73 97.26 M126.66 97.92 C84.5 96.63, 45.37 98.62, -0.55 96.34 M125.98 96.07 C84.21 95.45, 42.97 96.16, -0.65 97.59 M-0.14 96.59 C-1.45 68.09, 0.19 34.57, -1.31 -1.48 M0.08 95.76 C1.24 70.43, 1.18 45.6, -0.85 -0.14" stroke="#000000" stroke-width="1" fill="none"></path></g><g transform="translate(383.4782884385845 371.6871643066406) rotate(0 57.5 25)"><text x="57.5" y="18" font-family="Virgil, Segoe UI Emoji" font-size="20px" fill="#000000" text-anchor="middle" style="white-space: pre;" direction="ltr">Build &amp; </text><text x="57.5" y="43" font-family="Virgil, Segoe UI Emoji" font-size="20px" fill="#000000" text-anchor="middle" style="white-space: pre;" direction="ltr">Package</text></g><g stroke-linecap="round"><g transform="translate(282.7136923367818 394.2180287621968) rotate(0 29.350429810395966 0.9054219779172854)"><path d="M-0.76 1.04 C9.33 0.93, 49.37 0.21, 59.46 0.2 M1.04 0.54 C11.08 0.53, 48.83 1.84, 58.52 1.57" stroke="#495057" stroke-width="1" fill="none"></path></g><g transform="translate(282.7136923367818 394.2180287621968) rotate(0 29.350429810395966 0.9054219779172854)"><path d="M32.25 11.56 C35.72 10.21, 42.9 6.46, 57.29 2.08 M29.66 10.63 C39.83 7.56, 49.88 3.91, 59.36 0.67" stroke="#495057" stroke-width="1" fill="none"></path></g><g transform="translate(282.7136923367818 394.2180287621968) rotate(0 29.350429810395966 0.9054219779172854)"><path d="M32.4 -8.77 C35.98 -5.91, 43.13 -5.43, 57.29 2.08 M29.8 -9.7 C39.81 -5.6, 49.81 -2.06, 59.36 0.67" stroke="#495057" stroke-width="1" fill="none"></path></g></g><g stroke-linecap="round"><g transform="translate(517.679355798005 398.0313163923511) rotate(0 30.57947728209993 -0.8317850164855827)"><path d="M1.04 0.02 C11.07 0.16, 50.9 0.27, 61.03 0.12 M0.13 -1.02 C9.89 -1.18, 49.71 -2.01, 59.92 -1.83" stroke="#495057" stroke-width="1" fill="none"></path></g><g transform="translate(517.679355798005 398.0313163923511) rotate(0 30.57947728209993 -0.8317850164855827)"><path d="M31.8 8.01 C42.84 5.28, 51.61 -0.63, 60.43 -0.77 M30.86 7.92 C38.21 5.79, 44.96 4.56, 59.01 -2.02" stroke="#495057" stroke-width="1" fill="none"></path></g><g transform="translate(517.679355798005 398.0313163923511) rotate(0 30.57947728209993 -0.8317850164855827)"><path d="M31.71 -12.51 C42.66 -7.63, 51.45 -5.92, 60.43 -0.77 M30.78 -12.6 C38.18 -9.72, 44.95 -5.94, 59.01 -2.02" stroke="#495057" stroke-width="1" fill="none"></path></g></g><g transform="translate(15.573830498588904 555.3478291829426) rotate(0 29.5 12.5)"><text x="0" y="18" font-family="Virgil, Segoe UI Emoji" font-size="20px" fill="#000000" text-anchor="start" style="white-space: pre;" direction="ltr">Lab 6</text></g></svg>